<svg width="57" height="18" viewBox="0 0 57 18" fill="none" xmlns="http://www.w3.org/2000/svg">
<path d="M14.9722 3.7627H11.2172L10.7135 6.6063L14.2539 6.64968L14.9722 3.7627Z" fill="#5E5E7B"/>
<path d="M14.0006 7.68262H10.5247H10.5225H5.94903C5.53205 7.68262 5.19513 8.0091 5.19513 8.41207C5.19513 8.81504 5.53316 9.14152 5.94903 9.14152H10.2411L9.79858 11.4178H13.1044L13.9917 7.71915L14.0006 7.68262Z" fill="#5E5E7B"/>
<path d="M17.8723 11.4805C19.5969 11.4805 20.5588 10.3481 21.2448 7.49082C21.9298 4.63351 21.5061 3.52393 19.7582 3.52393C18.7919 3.52393 18.058 3.90178 17.5031 4.68032C17.0517 5.3173 16.6981 6.21456 16.3701 7.58442C15.7062 10.3481 16.1477 11.4805 17.8723 11.4805Z" fill="#5E5E7B"/>
<path d="M26.204 9.9234C25.926 11.0798 26.5098 11.6232 28.0965 11.6232C29.9134 11.6232 30.8197 10.9154 31.2389 9.16769L31.4657 8.22363H28.7059C27.3248 8.22363 26.4753 8.78984 26.204 9.9234Z" fill="#5E5E7B"/>
<path d="M0.753899 13.123C0.336919 13.123 0 13.4495 0 13.8525C0 14.2555 0.338031 14.582 0.753899 14.582H9.18244C9.18022 14.5945 9.1791 14.6071 9.17688 14.6196H9.17354L9.09348 15.0306C9.09348 15.4084 9.16465 15.768 9.29252 16.0979C9.63278 17.0728 10.4779 17.8194 11.5309 17.9689L11.5464 17.9039L11.5553 17.8673L12.7084 13.123H9.4671H0.753899Z" fill="#5E5E7B"/>
<path d="M56.8682 0.0239258H12.0146H1.33099C0.914007 0.0239258 0.577087 0.350409 0.577087 0.753376C0.577087 1.15634 0.915119 1.48283 1.33099 1.48283H11.731H17.8011L17.4786 2.76935C18.1947 2.16776 18.8508 1.69744 19.6814 1.50338C19.6569 1.50908 19.6325 1.51365 19.6091 1.51936H22.0198C23.4598 1.93945 24.068 2.95657 24.0391 4.46912C24.0191 5.31844 23.8957 6.12209 23.5554 7.53761C22.9327 10.1346 22.2133 11.5981 21.0669 12.5422C20.2074 13.2511 19.1043 13.6289 17.9079 13.6289C16.5735 13.6289 15.883 13.2511 15.2459 12.2591L13.8848 17.9314H33.1582L33.6074 16.0604H34.2056C35.1719 16.0604 35.5967 15.8241 36.1849 14.8093L37.2824 12.9212L35.9236 1.51936H38.431L39.186 9.96911L43.9263 1.51936H46.4337H46.4504L37.8395 15.8721C37.2257 16.9075 36.5307 17.5787 35.6756 17.9314H51.0305C52.5916 17.9314 53.857 16.8378 54.2129 15.0296L56.6102 1.48169L56.8682 0.0239258ZM34.4447 5.48396L32.5255 13.4874H30.2249L30.4851 12.4018C29.2808 13.3938 28.4713 13.6061 27.0914 13.6061C24.4917 13.6061 23.3553 12.3082 23.9101 9.99423C24.4316 7.82186 26.2608 6.52391 28.7438 6.52391H31.8717L32.0807 5.65063C32.4543 4.09241 31.8316 3.43145 29.9914 3.43145C29.3242 3.43145 28.8183 3.5262 28.3535 3.73853C27.9687 3.90406 27.6596 4.14036 27.2071 4.58899L26.0228 3.10155C26.8368 2.39264 27.2037 2.10954 27.8409 1.85041C28.0666 1.75109 28.5347 1.61639 28.9973 1.52164H32.0918C34.0411 1.97484 34.9618 3.32871 34.4447 5.48396ZM53.6925 1.84812C54.2162 2.06045 54.453 2.22598 54.9545 2.72141L53.1143 4.25565C52.4282 3.57072 51.5987 3.38237 50.5179 3.38237C49.1146 3.38237 48.2028 3.92575 47.9593 4.94058C47.7614 5.76707 48.165 6.19172 49.2469 6.28647L51.0471 6.452C53.2733 6.66432 54.1684 7.82071 53.6869 9.8287C53.1098 12.2362 50.9348 13.6301 47.6691 13.6301C46.6116 13.6301 45.6842 13.4645 44.9415 13.1107C44.3599 12.8515 44.0719 12.6152 43.4592 11.9063L45.3796 10.3241C46.1946 11.2454 47.0119 11.5753 48.4141 11.5753C50.0709 11.5753 51.1372 10.9623 51.393 9.89948C51.5965 9.04902 51.1984 8.6004 50.1632 8.50679L48.3162 8.34126C46.0845 8.15291 45.2005 7.04218 45.6709 5.08328C46.1146 3.23397 48.0505 1.88351 50.0886 1.45885C50.4256 1.41091 50.7725 1.3778 51.1372 1.3778C51.5586 1.3778 51.9701 1.42004 52.3648 1.48397H52.3848C52.8174 1.57758 53.4334 1.73283 53.6925 1.84812Z" fill="#5E5E7B"/>
<path d="M17.7789 1.51831H15.4783V1.51945H17.7778L17.7789 1.51831Z" fill="#5E5E7B"/>
</svg>
