<svg width="50" height="51" viewBox="0 0 50 51" fill="none" xmlns="http://www.w3.org/2000/svg">
<path d="M22.5164 13.937C22.6554 14.1708 22.8007 14.4109 22.9397 14.651C22.0552 12.0921 21.3349 9.81753 20.7789 7.83992C20.6841 7.68828 20.5894 7.53665 20.5009 7.38501C21.0064 9.27416 21.6887 11.4603 22.5164 13.937Z" fill="url(#paint0_linear)"/>
<path d="M11.3204 24.5327C11.4088 24.7791 11.4973 25.0255 11.592 25.2782C10.5558 22.5046 10.4674 19.0611 11.5604 15.6114C12.3629 13.0714 13.7339 10.74 15.4272 8.81296C15.7747 8.41491 16.1412 8.03582 16.5139 7.66936C19.3698 4.91461 23.2112 3.00651 27.059 2.72851C30.9953 2.44419 34.483 3.87211 36.7386 6.34885C36.5553 6.14667 36.3784 5.9508 36.1952 5.76126C33.9901 3.39824 30.572 2.0651 26.7115 2.39996C22.9522 2.72851 19.1865 4.63029 16.3749 7.32818C16.0022 7.682 15.642 8.06109 15.3008 8.4465C13.6265 10.3293 12.2555 12.6165 11.4404 15.087C10.3221 18.4672 10.3537 21.8222 11.3204 24.5327Z" fill="#3D3E5D"/>
<path d="M10.1073 30.3014C10.2021 30.5541 10.3095 30.8132 10.4106 31.0722C10.9982 29.7896 11.6742 28.4502 12.4514 27.0791C12.344 26.8201 12.2365 26.5547 12.1291 26.2957C11.3583 27.6667 10.6823 29.0062 10.1073 30.3014Z" fill="#3D3E5D"/>
<path d="M8.86279 23.9829C8.93229 24.223 9.01443 24.4631 9.09025 24.7032C9.40616 25.6762 9.81684 26.605 10.297 27.4769C10.1959 27.2178 10.0948 26.9651 9.99375 26.7061C9.54516 25.8531 9.15975 24.9433 8.86279 23.9829Z" fill="url(#paint1_linear)"/>
<path d="M24.3486 19.137C24.5192 19.415 24.6835 19.6993 24.8541 19.9836C28.5882 15.4408 32.398 11.3592 36.05 7.99163C35.8668 7.77681 35.6835 7.56199 35.5003 7.34717C31.8547 10.6263 28.0574 14.6384 24.3486 19.137Z" fill="#4B5F93"/>
<path d="M10.7456 31.3564C10.853 31.6155 10.9667 31.8809 11.0805 32.1399C11.3648 32.5569 11.6681 32.955 11.9903 33.334C11.8639 33.0687 11.7376 32.797 11.6175 32.5316C11.3079 32.1589 11.0173 31.7671 10.7456 31.3564Z" fill="#4B5F93"/>
<path d="M11.6175 32.5315C11.7375 32.7969 11.8639 33.0685 11.9903 33.3339C12.8495 33.6119 13.7657 33.8899 14.7513 34.1616C14.5997 33.8836 14.4544 33.5993 14.3091 33.315C13.3487 33.0622 12.4515 32.7969 11.6175 32.5315Z" fill="#4B5F93"/>
<path d="M16.1856 30.2508C17.4239 28.33 18.7887 26.3461 20.2798 24.3369C20.4377 24.6276 20.602 24.9182 20.7663 25.2151C19.2689 27.2307 17.8915 29.2083 16.6405 31.1227C15.9581 32.1652 15.3263 33.1824 14.745 34.1681C14.5934 33.8901 14.4481 33.6057 14.3027 33.3214C14.884 32.3295 15.5095 31.2996 16.1856 30.2508Z" fill="#4B5F93"/>
<path d="M24.6331 35.6023C24.8289 35.9056 25.0248 36.2088 25.227 36.5121C26.6738 36.7712 28.146 37.0176 29.6434 37.245C29.4412 36.9418 29.239 36.6385 29.0369 36.3352C27.5394 36.1078 26.0673 35.8613 24.6331 35.6023Z" fill="#4B5F93"/>
<path d="M24.8604 19.9836C26.1556 23.4586 27.5899 27.0727 29.1315 30.7499C29.9403 32.6832 30.7616 34.585 31.583 36.4552C31.3808 36.1519 31.1723 35.8423 30.9701 35.5391C30.1424 33.6499 29.3274 31.7355 28.525 29.7958C27.0086 26.1312 25.606 22.5551 24.3486 19.137C24.5192 19.415 24.6835 19.6993 24.8604 19.9836Z" fill="#4B5F93"/>
<path d="M29.0305 36.3415C29.2327 36.6448 29.4349 36.948 29.6371 37.2513C30.2942 37.0175 30.9386 36.7522 31.5768 36.4552C31.3746 36.1519 31.1661 35.8423 30.9639 35.5391C30.3321 35.836 29.6876 36.1014 29.0305 36.3415Z" fill="#4B5F93"/>
<path d="M40.8457 4.5419C40.6625 4.35867 40.4793 4.17545 40.296 3.99854C43.3667 6.95546 45.1042 11.4983 44.624 16.6918C43.9227 24.2295 39.1208 30.9521 32.5941 34.6925C32.7963 35.0021 32.9985 35.3117 33.2007 35.6149C39.7211 31.8998 44.5103 25.1646 45.2116 17.5701C45.6981 12.2817 43.948 7.6252 40.8457 4.5419Z" fill="#4B5F93"/>
<path d="M30.7238 35.4441C29.8961 33.555 29.081 31.6406 28.2786 29.7009C26.7622 26.0426 25.3596 22.4602 24.1086 19.042C27.7984 14.5687 31.5641 10.5819 35.1971 7.30908C35.2982 7.32172 35.3992 7.32804 35.5067 7.34067C31.861 10.6261 28.0638 14.6319 24.355 19.1305C25.6123 22.5486 27.015 26.1311 28.5313 29.7893C29.3338 31.7227 30.1488 33.6434 30.9765 35.5326C30.3383 35.8295 29.6939 36.1012 29.0368 36.335C27.5394 36.1075 26.0735 35.8611 24.6393 35.6021C24.633 35.5831 24.6267 35.5705 24.6204 35.5515C25.9851 35.7979 27.3814 36.0317 28.7967 36.2465C29.4412 36.0128 30.0856 35.7474 30.7238 35.4441Z" fill="#DBE7C9"/>
<path d="M44.3773 16.6031C44.8828 11.1062 42.8989 6.33596 39.487 3.39798C38.2487 2.33652 36.7892 1.48356 35.1717 0.889648C36.8839 1.48988 38.4382 2.37443 39.7334 3.49276C43.1453 6.43705 45.1292 11.2073 44.6238 16.6978C43.9224 24.2228 39.1206 30.9518 32.5939 34.6921C32.5686 34.629 32.537 34.5658 32.5117 34.5026C38.9563 30.7433 43.6823 24.0712 44.3773 16.6031Z" fill="#D3D4D4"/>
<path d="M11.1942 14.9986C12.0156 12.5218 13.3803 10.241 15.0547 8.35814C15.3959 7.97273 15.756 7.59364 16.1288 7.23981C18.9404 4.54193 22.706 2.64015 26.4654 2.3116C28.5314 2.13469 30.4648 2.43165 32.1644 3.11401C30.528 2.50115 28.6768 2.22946 26.7118 2.40006C22.9525 2.7286 19.1868 4.63039 16.3752 7.32827C16.0024 7.68209 15.6423 8.06118 15.3011 8.4466C13.6268 10.3294 12.2557 12.6166 11.4407 15.087C10.0822 19.1939 10.4424 23.3134 12.1293 26.2893C11.3585 27.6666 10.6825 29.0061 10.1075 30.3013C10.057 30.2066 10.0064 30.1055 9.95587 30.0107C10.5182 28.7786 11.1563 27.5024 11.8892 26.2008C10.196 23.2249 9.83583 19.1054 11.1942 14.9986Z" fill="#4B5F93"/>
<path d="M20.5009 7.38501C20.9874 9.21098 21.7266 11.574 22.5164 13.937C22.4658 13.9939 22.409 14.0571 22.3584 14.1139C22.0362 13.1662 21.7329 12.2185 21.4423 11.3023C21.417 11.2202 21.3917 11.1317 21.3665 11.0496C21.3475 10.9927 21.3349 10.9422 21.3159 10.8916C21.0632 10.0703 20.8231 9.2868 20.6146 8.55388C20.602 8.50334 20.583 8.45279 20.5704 8.40224C20.5325 8.26956 20.4945 8.13056 20.4566 8.0042C20.3998 7.80201 20.3492 7.60615 20.2924 7.4166C20.3619 7.40396 20.4314 7.39765 20.5009 7.38501Z" fill="#DBE7C9"/>
<path d="M20.2924 7.4165C20.3429 7.61237 20.3998 7.80823 20.4566 8.0041C20.3998 7.80192 20.3429 7.60605 20.2924 7.4165Z" fill="#DBE7C9"/>
<path d="M21.316 10.8979C21.3349 10.9485 21.3476 11.0054 21.3665 11.0559C21.3476 11.0054 21.3286 10.9485 21.316 10.8979Z" fill="#DBE7C9"/>
<path d="M20.5641 8.4021C20.5768 8.45265 20.5957 8.50319 20.6084 8.55374C20.5957 8.50951 20.5831 8.45896 20.5641 8.4021Z" fill="#DBE7C9"/>
<path d="M14.0624 33.2328C14.6437 32.2345 15.2692 31.211 15.9453 30.1622C16.3939 29.4608 16.8867 28.7216 17.3921 27.9697C18.2767 26.6619 19.2307 25.3161 20.1785 24.0398C20.2101 24.1283 20.2796 24.3494 20.2859 24.3557C19.4835 25.4424 17.9608 27.4959 16.1917 30.2506C15.5156 31.2994 14.8901 32.3293 14.3088 33.3213C13.3485 33.0622 12.4576 32.7969 11.6236 32.5315C11.6173 32.5252 11.611 32.5189 11.611 32.5125C12.3691 32.7589 13.1905 32.9927 14.0624 33.2328Z" fill="#4B5F93"/>
<path d="M20.2922 7.41665C20.3428 7.6062 20.3996 7.80206 20.4565 8.00424C20.4944 8.13693 20.5323 8.26961 20.5702 8.40229C20.5892 8.45284 20.6018 8.50338 20.6145 8.55393C20.8293 9.29316 21.0631 10.0703 21.3158 10.8917C21.3347 10.9422 21.3474 10.9991 21.3663 11.0496C21.3916 11.1318 21.4169 11.2139 21.4422 11.3024C21.7328 12.2185 22.0424 13.1599 22.3583 14.114C22.4088 14.0571 22.4657 13.9939 22.5163 13.9371C24.7845 11.3592 27.1096 9.00252 29.441 6.92383C31.3302 6.97437 33.2509 7.10074 35.1906 7.30924C32.6191 9.62803 29.9781 12.307 27.3434 15.2639C27.2233 15.2386 27.1033 15.2133 26.9769 15.1881C23.6409 14.5057 20.3807 14.0571 17.2848 13.8296C16.8235 11.7257 16.5139 9.84285 16.3749 8.20011C17.5754 7.8842 18.8833 7.61883 20.2922 7.41665Z" fill="url(#paint2_linear)"/>
<path d="M38.9753 15.6808C39.4112 12.5407 38.8299 9.71012 37.4905 7.47978C37.2314 7.05014 36.9534 6.64578 36.6438 6.26668C35.5002 4.87036 33.9649 3.78362 32.1705 3.10757C30.4709 2.4252 28.5312 2.12825 26.4715 2.30516C22.7122 2.63371 18.9465 4.53549 16.1349 7.23337C15.7621 7.58719 15.402 7.96629 15.0608 8.3517C13.6897 9.89334 12.5272 11.7004 11.6995 13.6653C11.1561 13.6716 10.6317 13.6906 10.1073 13.7159C11.611 10.3546 13.9172 7.35342 16.5835 5.11045C19.8058 2.40625 23.9063 0.510783 28.0511 0.087462C30.5783 -0.165267 33.0045 0.138008 35.1654 0.889876C36.7828 1.48379 38.2487 2.33675 39.4807 3.39821C42.8926 6.3425 44.8765 11.1128 44.371 16.6033C44.2383 17.9996 43.973 19.3644 43.5749 20.6912C41.9448 19.8951 40.1947 19.1369 38.3371 18.4419C38.6278 17.5447 38.8426 16.6223 38.9753 15.6808Z" fill="url(#paint3_radial)"/>
<path d="M9.94943 30.0105C10.5117 28.7785 11.1499 27.5022 11.8828 26.2006C10.1958 23.2248 9.8357 19.1053 11.1941 14.9984C11.3458 14.5498 11.51 14.1012 11.6933 13.6653C11.1562 13.6716 10.6318 13.6906 10.1074 13.7158C9.81674 14.3603 9.5577 15.0174 9.33024 15.6871C7.59273 20.7859 7.94023 26.0995 9.94943 30.0105ZM30.1361 28.8859C30.9196 30.775 31.7157 32.6515 32.5118 34.5028C37.7559 31.4448 41.8564 26.4597 43.5813 20.6911C41.9512 19.8951 40.2011 19.1369 38.3435 18.4419C36.9851 22.7319 33.965 26.4534 30.1361 28.8859Z" fill="url(#paint4_radial)"/>
<path d="M27.3436 15.2641C26.2632 16.4772 25.1764 17.7408 24.1023 19.0424C25.3533 22.4605 26.7623 26.043 28.2724 29.7012C29.0748 31.6346 29.8898 33.5553 30.7175 35.4445C30.0794 35.7414 29.4349 36.0131 28.7778 36.2469C27.3625 36.0258 25.9662 35.7983 24.6015 35.5519C24.0202 34.1998 23.4516 32.8414 22.9019 31.4703C21.9415 29.0694 21.0633 26.6811 20.2672 24.337C20.2672 24.337 20.2672 24.337 20.2672 24.3434C20.2356 24.2486 20.1977 24.1349 20.1661 24.0401C19.2183 25.3164 18.2643 26.6621 17.3797 27.97C16.8806 28.7092 16.3941 29.4358 15.9329 30.1624C15.2568 31.2113 14.6313 32.2411 14.05 33.2331C13.1781 32.993 12.3631 32.7592 11.5922 32.5128C11.289 32.1464 10.9983 31.7546 10.733 31.3566C11.3332 30.0677 12.0345 28.7345 12.818 27.3572C14.4228 24.5519 16.3436 21.6644 18.536 18.7896C18.0305 17.0205 17.6135 15.3652 17.2723 13.8298C20.3683 14.0573 23.6285 14.4996 26.9645 15.1883C27.1035 15.2135 27.2235 15.2388 27.3436 15.2641Z" fill="url(#paint5_linear)"/>
<path d="M6.47327 45.6312H3.88331V50.8112H2.58996V45.6312H0V44.3379H6.47327V45.6312Z" fill="#814C68"/>
<path d="M13.5966 45.6312H8.41666V46.9246H12.3V48.218H8.41666V49.5113H13.5966V50.8047H7.12006V44.3379H13.5933V45.6312H13.5966Z" fill="#814C68"/>
<path d="M19.4197 50.8112H14.2397V44.3379H15.5331V49.5178H19.4164V50.8112H19.4197Z" fill="#814C68"/>
<path d="M26.5429 45.6312H21.363V46.9246H25.2463V48.218H21.363V49.5113H26.5429V50.8047H20.0696V44.3379H26.5429V45.6312Z" fill="#814C68"/>
<path d="M33.6629 50.8112H29.1297C27.8363 50.8112 27.1896 50.1645 27.1896 48.8711V46.2812C27.1896 44.9846 27.8363 44.3379 29.1297 44.3379H33.6629V45.6312H29.1297C28.6975 45.6312 28.483 45.8457 28.483 46.2779V48.8679C28.483 49.3001 28.6975 49.5146 29.1297 49.5146H33.6629V50.8112Z" fill="#814C68"/>
<path d="M40.783 48.9785C40.783 50.2719 40.1363 50.9185 38.8397 50.9185H36.2497C34.9564 50.9185 34.3097 50.2719 34.3097 48.9785V46.1708C34.3097 44.8742 34.9564 44.2275 36.2497 44.2275H38.8397C40.133 44.2275 40.783 44.8742 40.783 46.1708V48.9785ZM39.4896 48.9785V46.1708C39.4896 45.7386 39.2751 45.5241 38.8429 45.5241H36.253C35.8208 45.5241 35.6063 45.7386 35.6063 46.1708V48.9753C35.6063 49.4075 35.8208 49.6219 36.253 49.6219H38.8429C39.2719 49.6252 39.4896 49.4075 39.4896 48.9785Z" fill="#814C68"/>
<path d="M49.1994 50.8112H47.9061V46.7556L45.3161 50.8112L42.7262 46.7556V50.8112H41.4328V44.3379H42.7262L45.3161 48.3967L47.9061 44.3379H49.1994V50.8112Z" fill="#814C68"/>
<defs>
<linearGradient id="paint0_linear" x1="26.7352" y1="10.5627" x2="2.99647" y2="12.7208" gradientUnits="userSpaceOnUse">
<stop stop-color="#548458"/>
<stop offset="1" stop-color="#28352B"/>
</linearGradient>
<linearGradient id="paint1_linear" x1="4.35796" y1="27.9345" x2="6.09364" y2="27.2037" gradientUnits="userSpaceOnUse">
<stop stop-color="#474747"/>
<stop offset="1" stop-color="#191A1B"/>
</linearGradient>
<linearGradient id="paint2_linear" x1="29.2244" y1="-1.35254" x2="21.5925" y2="18.8655" gradientUnits="userSpaceOnUse">
<stop stop-color="#99BD59"/>
<stop offset="1" stop-color="#5AA567"/>
</linearGradient>
<radialGradient id="paint3_radial" cx="0" cy="0" r="1" gradientUnits="userSpaceOnUse" gradientTransform="translate(27.2803 10.3414) scale(14.1786)">
<stop offset="0.00478469" stop-color="#DDB4BC"/>
<stop offset="0.4975" stop-color="#C56E9E"/>
<stop offset="1" stop-color="#814C68"/>
</radialGradient>
<radialGradient id="paint4_radial" cx="0" cy="0" r="1" gradientUnits="userSpaceOnUse" gradientTransform="translate(25.8963 24.0855) scale(14.5137)">
<stop offset="0.00478469" stop-color="#DDB4BC"/>
<stop offset="0.4975" stop-color="#C56E9E"/>
<stop offset="1" stop-color="#814C68"/>
</radialGradient>
<linearGradient id="paint5_linear" x1="25.6189" y1="15.001" x2="19.7522" y2="37.1031" gradientUnits="userSpaceOnUse">
<stop stop-color="#99BD59"/>
<stop offset="1" stop-color="#5AA567"/>
</linearGradient>
</defs>
</svg>
