<svg width="50" height="51" viewBox="0 0 50 51" fill="none" xmlns="http://www.w3.org/2000/svg">
<path d="M22.5164 13.937C22.6554 14.1708 22.8007 14.4109 22.9397 14.651C22.0552 12.0921 21.3349 9.81753 20.7789 7.83992C20.6841 7.68828 20.5894 7.53665 20.5009 7.38501C21.0064 9.27416 21.6887 11.4603 22.5164 13.937Z" fill="#5E5E7B"/>
<path d="M11.3204 24.5327C11.4088 24.7791 11.4973 25.0255 11.592 25.2782C10.5558 22.5046 10.4674 19.0611 11.5604 15.6114C12.3629 13.0714 13.7339 10.74 15.4272 8.81296C15.7747 8.41491 16.1412 8.03582 16.5139 7.66936C19.3698 4.91461 23.2112 3.00651 27.059 2.72851C30.9953 2.44419 34.483 3.87211 36.7386 6.34885C36.5553 6.14667 36.3784 5.9508 36.1952 5.76126C33.9901 3.39824 30.572 2.0651 26.7115 2.39996C22.9522 2.72851 19.1865 4.63029 16.3749 7.32818C16.0022 7.682 15.642 8.06109 15.3008 8.4465C13.6265 10.3293 12.2555 12.6165 11.4404 15.087C10.3221 18.4672 10.3537 21.8222 11.3204 24.5327Z" fill="#5E5E7B"/>
<path d="M10.1073 30.3014C10.2021 30.5541 10.3095 30.8132 10.4106 31.0722C10.9982 29.7896 11.6742 28.4502 12.4514 27.0791C12.344 26.8201 12.2365 26.5547 12.1291 26.2957C11.3583 27.6667 10.6823 29.0062 10.1073 30.3014Z" fill="#5E5E7B"/>
<path d="M8.86279 23.9829C8.93229 24.223 9.01443 24.4631 9.09025 24.7032C9.40616 25.6762 9.81684 26.605 10.297 27.4769C10.1959 27.2178 10.0948 26.9651 9.99375 26.7061C9.54516 25.8531 9.15975 24.9433 8.86279 23.9829Z" fill="url(#paint0_linear)"/>
<path d="M24.3486 19.137C24.5192 19.415 24.6835 19.6993 24.8541 19.9836C28.5882 15.4408 32.398 11.3592 36.05 7.99163C35.8668 7.77681 35.6835 7.56199 35.5003 7.34717C31.8547 10.6263 28.0574 14.6384 24.3486 19.137Z" fill="#5E5E7B"/>
<path d="M10.7456 31.3564C10.853 31.6155 10.9667 31.8809 11.0805 32.1399C11.3648 32.5569 11.6681 32.955 11.9903 33.334C11.8639 33.0687 11.7376 32.797 11.6175 32.5316C11.3079 32.1589 11.0173 31.7671 10.7456 31.3564Z" fill="#5E5E7B"/>
<path d="M11.6174 32.5315C11.7375 32.7969 11.8638 33.0685 11.9902 33.3339C12.8495 33.6119 13.7656 33.8899 14.7513 34.1616C14.5996 33.8836 14.4543 33.5993 14.309 33.315C13.3486 33.0622 12.4514 32.7969 11.6174 32.5315Z" fill="#5E5E7B"/>
<path d="M16.1855 30.2508C17.4239 28.33 18.7886 26.3461 20.2797 24.3369C20.4377 24.6276 20.6019 24.9182 20.7662 25.2151C19.2688 27.2307 17.8914 29.2083 16.6404 31.1227C15.958 32.1652 15.3262 33.1824 14.7449 34.1681C14.5933 33.8901 14.448 33.6057 14.3027 33.3214C14.8839 32.3295 15.5095 31.2996 16.1855 30.2508Z" fill="#5E5E7B"/>
<path d="M24.6331 35.6023C24.8289 35.9056 25.0248 36.2088 25.227 36.5121C26.6738 36.7712 28.146 37.0176 29.6434 37.245C29.4412 36.9418 29.239 36.6385 29.0369 36.3352C27.5394 36.1078 26.0673 35.8613 24.6331 35.6023Z" fill="#5E5E7B"/>
<path d="M24.8604 19.9836C26.1556 23.4586 27.5899 27.0727 29.1315 30.7499C29.9403 32.6832 30.7616 34.585 31.583 36.4552C31.3808 36.1519 31.1723 35.8423 30.9701 35.5391C30.1424 33.6499 29.3274 31.7355 28.525 29.7958C27.0086 26.1312 25.606 22.5551 24.3486 19.137C24.5192 19.415 24.6835 19.6993 24.8604 19.9836Z" fill="#5E5E7B"/>
<path d="M29.0305 36.3415C29.2327 36.6448 29.4349 36.948 29.6371 37.2513C30.2942 37.0175 30.9386 36.7522 31.5768 36.4552C31.3746 36.1519 31.1661 35.8423 30.9639 35.5391C30.3321 35.836 29.6876 36.1014 29.0305 36.3415Z" fill="#5E5E7B"/>
<path d="M40.8457 4.5419C40.6624 4.35867 40.4792 4.17545 40.296 3.99854C43.3666 6.95546 45.1041 11.4983 44.624 16.6918C43.9226 24.2295 39.1208 30.9521 32.5941 34.6925C32.7962 35.0021 32.9984 35.3117 33.2006 35.6149C39.721 31.8998 44.5102 25.1646 45.2115 17.5701C45.6981 12.2817 43.9479 7.6252 40.8457 4.5419Z" fill="#5E5E7B"/>
<path d="M20.2924 7.4165C20.3429 7.61237 20.3998 7.80823 20.4566 8.0041C20.3998 7.80192 20.3429 7.60605 20.2924 7.4165Z" fill="#DBE7C9"/>
<path d="M21.316 10.8979C21.3349 10.9485 21.3476 11.0054 21.3665 11.0559C21.3476 11.0054 21.3286 10.9485 21.316 10.8979Z" fill="#DBE7C9"/>
<path d="M20.5641 8.4021C20.5768 8.45265 20.5957 8.50319 20.6084 8.55374C20.5957 8.50951 20.5831 8.45896 20.5641 8.4021Z" fill="#DBE7C9"/>
<path d="M20.2922 7.41665C20.3428 7.6062 20.3996 7.80206 20.4565 8.00424C20.4944 8.13693 20.5323 8.26961 20.5702 8.40229C20.5892 8.45284 20.6018 8.50338 20.6145 8.55393C20.8293 9.29316 21.0631 10.0703 21.3158 10.8917C21.3347 10.9422 21.3474 10.9991 21.3663 11.0496C21.3916 11.1318 21.4169 11.2139 21.4422 11.3024C21.7328 12.2185 22.0424 13.1599 22.3583 14.114C22.4088 14.0571 22.4657 13.9939 22.5163 13.9371C24.7845 11.3592 27.1096 9.00252 29.441 6.92383C31.3302 6.97437 33.2509 7.10074 35.1906 7.30924C32.6191 9.62803 29.9781 12.307 27.3434 15.2639C27.2233 15.2386 27.1033 15.2133 26.9769 15.1881C23.6409 14.5057 20.3807 14.0571 17.2848 13.8296C16.8235 11.7257 16.5139 9.84285 16.3749 8.20011C17.5754 7.8842 18.8833 7.61883 20.2922 7.41665Z" fill="url(#paint1_linear)"/>
<path d="M38.9753 15.6808C39.4112 12.5407 38.8299 9.71012 37.4905 7.47978C37.2314 7.05014 36.9534 6.64578 36.6438 6.26668C35.5002 4.87036 33.9649 3.78362 32.1705 3.10757C30.4709 2.4252 28.5312 2.12825 26.4715 2.30516C22.7122 2.63371 18.9465 4.53549 16.1349 7.23337C15.7621 7.58719 15.402 7.96629 15.0608 8.3517C13.6897 9.89334 12.5272 11.7004 11.6995 13.6653C11.1561 13.6716 10.6317 13.6906 10.1073 13.7159C11.611 10.3546 13.9172 7.35342 16.5835 5.11045C19.8058 2.40625 23.9063 0.510783 28.0511 0.087462C30.5783 -0.165267 33.0045 0.138008 35.1654 0.889876C36.7828 1.48379 38.2487 2.33675 39.4807 3.39821C42.8926 6.3425 44.8765 11.1128 44.371 16.6033C44.2383 17.9996 43.973 19.3644 43.5749 20.6912C41.9448 19.8951 40.1947 19.1369 38.3371 18.4419C38.6278 17.5447 38.8426 16.6223 38.9753 15.6808Z" fill="url(#paint2_radial)"/>
<path d="M9.94943 30.0105C10.5117 28.7785 11.1499 27.5022 11.8828 26.2006C10.1958 23.2248 9.8357 19.1053 11.1941 14.9984C11.3458 14.5498 11.51 14.1012 11.6933 13.6653C11.1562 13.6716 10.6318 13.6906 10.1074 13.7158C9.81674 14.3603 9.5577 15.0174 9.33024 15.6871C7.59273 20.7859 7.94023 26.0995 9.94943 30.0105ZM30.1361 28.8859C30.9196 30.775 31.7157 32.6515 32.5118 34.5028C37.7559 31.4448 41.8564 26.4597 43.5813 20.6911C41.9512 19.8951 40.2011 19.1369 38.3435 18.4419C36.9851 22.7319 33.965 26.4534 30.1361 28.8859Z" fill="url(#paint3_radial)"/>
<path d="M27.3436 15.2641C26.2632 16.4772 25.1764 17.7408 24.1023 19.0424C25.3533 22.4605 26.7623 26.043 28.2724 29.7012C29.0748 31.6346 29.8898 33.5553 30.7175 35.4445C30.0794 35.7414 29.4349 36.0131 28.7778 36.2469C27.3625 36.0258 25.9662 35.7983 24.6015 35.5519C24.0202 34.1998 23.4516 32.8414 22.9019 31.4703C21.9415 29.0694 21.0633 26.6811 20.2672 24.337C20.2672 24.337 20.2672 24.337 20.2672 24.3434C20.2356 24.2486 20.1977 24.1349 20.1661 24.0401C19.2183 25.3164 18.2643 26.6621 17.3797 27.97C16.8806 28.7092 16.3941 29.4358 15.9329 30.1624C15.2568 31.2113 14.6313 32.2411 14.05 33.2331C13.1781 32.993 12.3631 32.7592 11.5922 32.5128C11.289 32.1464 10.9983 31.7546 10.733 31.3566C11.3332 30.0677 12.0345 28.7345 12.818 27.3572C14.4228 24.5519 16.3436 21.6644 18.536 18.7896C18.0305 17.0205 17.6135 15.3652 17.2723 13.8298C20.3683 14.0573 23.6285 14.4996 26.9645 15.1883C27.1035 15.2135 27.2235 15.2388 27.3436 15.2641Z" fill="url(#paint4_linear)"/>
<path d="M6.47327 45.6313H3.88331V50.8113H2.58996V45.6313H0V44.338H6.47327V45.6313Z" fill="#5E5E7B"/>
<path d="M13.5966 45.6313H8.41664V46.9247H12.3V48.2181H8.41664V49.5114H13.5966V50.8048H7.12003V44.338H13.5933V45.6313H13.5966Z" fill="#5E5E7B"/>
<path d="M19.4197 50.8113H14.2398V44.338H15.5331V49.5179H19.4164V50.8113H19.4197Z" fill="#5E5E7B"/>
<path d="M26.5429 45.6313H21.363V46.9247H25.2463V48.2181H21.363V49.5114H26.5429V50.8048H20.0696V44.338H26.5429V45.6313Z" fill="#5E5E7B"/>
<path d="M33.6629 50.8113H29.1297C27.8363 50.8113 27.1896 50.1646 27.1896 48.8712V46.2813C27.1896 44.9847 27.8363 44.338 29.1297 44.338H33.6629V45.6313H29.1297C28.6975 45.6313 28.483 45.8458 28.483 46.278V48.868C28.483 49.3002 28.6975 49.5147 29.1297 49.5147H33.6629V50.8113Z" fill="#5E5E7B"/>
<path d="M40.783 48.9785C40.783 50.2719 40.1363 50.9185 38.8397 50.9185H36.2497C34.9564 50.9185 34.3097 50.2719 34.3097 48.9785V46.1708C34.3097 44.8742 34.9564 44.2275 36.2497 44.2275H38.8397C40.133 44.2275 40.783 44.8742 40.783 46.1708V48.9785ZM39.4896 48.9785V46.1708C39.4896 45.7386 39.2751 45.5241 38.8429 45.5241H36.253C35.8208 45.5241 35.6063 45.7386 35.6063 46.1708V48.9753C35.6063 49.4075 35.8208 49.6219 36.253 49.6219H38.8429C39.2719 49.6252 39.4896 49.4075 39.4896 48.9785Z" fill="#5E5E7B"/>
<path d="M49.1994 50.8113H47.9061V46.7557L45.3161 50.8113L42.7262 46.7557V50.8113H41.4328V44.338H42.7262L45.3161 48.3968L47.9061 44.338H49.1994V50.8113Z" fill="#5E5E7B"/>
<defs>
<linearGradient id="paint0_linear" x1="4.35796" y1="27.9345" x2="6.09364" y2="27.2037" gradientUnits="userSpaceOnUse">
<stop stop-color="#474747"/>
<stop offset="1" stop-color="#191A1B"/>
</linearGradient>
<linearGradient id="paint1_linear" x1="30.3902" y1="7.35954" x2="29.477" y2="16.066" gradientUnits="userSpaceOnUse">
<stop stop-color="#5E5E7B"/>
<stop offset="1" stop-color="#D3D4D4"/>
</linearGradient>
<radialGradient id="paint2_radial" cx="0" cy="0" r="1" gradientUnits="userSpaceOnUse" gradientTransform="translate(27.2781 10.3471) scale(14.0919 14.4117)">
<stop offset="0.00478469" stop-color="#DCDCED"/>
<stop offset="0.4975" stop-color="#DCDCED"/>
<stop offset="1" stop-color="#5E5E7B"/>
</radialGradient>
<radialGradient id="paint3_radial" cx="0" cy="0" r="1" gradientUnits="userSpaceOnUse" gradientTransform="translate(25.8963 24.0855) scale(14.5137)">
<stop offset="0.00478469" stop-color="#DCDCED"/>
<stop offset="0.4975" stop-color="#DCDCED"/>
<stop offset="1" stop-color="#5E5E7B"/>
</radialGradient>
<linearGradient id="paint4_linear" x1="25.6189" y1="15.001" x2="19.7522" y2="37.1031" gradientUnits="userSpaceOnUse">
<stop stop-color="#5E5E7B"/>
<stop offset="1" stop-color="#D3D4D4"/>
</linearGradient>
</defs>
</svg>
