<svg width="71" height="45" viewBox="0 0 71 45" fill="none" xmlns="http://www.w3.org/2000/svg">
<path fill-rule="evenodd" clip-rule="evenodd" d="M67.645 31.0595C67.6973 31.007 67.7424 30.9564 67.7839 30.8985C67.9894 30.8678 68.3826 30.8154 68.7378 30.593C69.1093 30.3652 69.4447 29.9566 69.6034 29.5588C69.7639 29.1664 69.7477 28.7886 69.6503 28.4016C69.5529 28.0147 69.3672 27.6169 69.1562 27.3729C68.965 27.1559 68.7541 27.0637 68.6044 27.0112C68.5377 26.8304 68.4547 26.6605 68.3627 26.5213C68.3627 26.3459 68.3573 26.1289 68.3158 25.8848C68.2491 25.4925 68.0796 25.0314 67.8362 24.6915C67.645 24.4185 67.398 24.216 67.1455 24.0714C67.0734 23.9213 66.9958 23.7821 66.9093 23.6573C66.7902 23.4874 66.6514 23.3482 66.5071 23.2288C66.6207 23.1511 66.7434 23.0643 66.8786 22.9594C67.2807 22.6502 67.7334 22.2254 68.2022 21.6775C68.6711 21.1297 69.1562 20.4625 69.378 19.8749C69.5944 19.2909 69.5529 18.7901 69.3672 18.4122C69.1923 18.0397 68.8821 17.7812 68.516 17.5642C68.4962 17.4973 68.4691 17.4358 68.4385 17.3726C68.2581 16.9947 67.939 16.7361 67.5567 16.5156C67.1906 16.304 66.7632 16.1232 66.2997 16.1069C66.5107 15.9207 66.7271 15.7562 66.9345 15.617C67.3835 15.3114 67.8055 15.1161 68.0742 14.8413C68.3375 14.5683 68.4457 14.2157 68.4655 13.8234C68.4908 13.4256 68.4295 12.9862 68.2798 12.6662C68.1247 12.3516 67.883 12.1491 67.5729 12.0153C67.5368 11.9991 67.5008 11.9846 67.4647 11.9683C67.434 11.849 67.398 11.7351 67.3457 11.632C67.196 11.312 66.9543 11.1149 66.6388 10.9757C66.3304 10.8419 65.9535 10.7642 65.3819 10.7587C64.8156 10.7479 64.0582 10.8112 63.4289 10.9558C62.7995 11.1005 62.3 11.3283 61.9285 11.5561C61.8402 11.6121 61.759 11.67 61.6815 11.7206C61.5011 11.2975 61.2288 10.9667 60.7852 10.7334L60.769 10.7226L60.7528 10.6918C60.5724 10.2633 60.3001 9.93246 59.8511 9.6938C59.4075 9.45695 58.7835 9.32134 58.156 9.32677C57.5266 9.33762 56.8937 9.48768 56.3364 9.6721C55.7846 9.85291 55.3158 10.0644 55.0579 10.276C54.8 10.4875 54.7531 10.7045 54.7225 10.7931C54.6918 10.8853 54.6756 10.8546 54.4646 10.6738C54.2536 10.4875 53.8461 10.1567 53.2636 9.95054C52.6757 9.74443 51.9183 9.6721 51.0221 9.8059C50.1204 9.94512 49.0745 10.2923 48.2594 10.7407C47.4497 11.1909 46.8727 11.7333 46.4453 12.2178L46.4146 12.254C46.3263 12.3155 46.2397 12.3824 46.1622 12.4456C46.0233 11.981 45.7763 11.6085 45.4048 11.3192C45.3218 11.2578 45.2299 11.1945 45.1325 11.1384C44.9882 10.7967 44.7718 10.5128 44.4779 10.285C44.0757 9.97043 43.5293 9.75708 42.9216 9.72635C42.3193 9.69561 41.6485 9.8511 41.1273 10.0319C40.6026 10.2127 40.2257 10.4297 39.8848 10.7768C39.7243 10.9414 39.5711 11.133 39.4268 11.3445C39.1437 11.4838 38.9056 11.6537 38.6892 11.8761C38.3448 12.2269 38.0455 12.7132 37.7263 13.1996C37.5514 13.469 37.371 13.7312 37.2015 13.9753C37.1709 13.9698 37.1294 13.9644 37.0735 13.959C36.9094 13.9536 36.6046 13.9843 36.3107 14.0566C36.1358 14.1036 35.9608 14.1651 35.7949 14.2428C35.7589 13.9427 35.6867 13.639 35.5587 13.2719C35.3982 12.8181 35.1566 12.2703 34.7544 11.8508C34.621 11.7116 34.4713 11.5868 34.3018 11.4783C34.1738 11.2451 34.0187 11.0137 33.8275 10.8166C33.4254 10.3989 32.8646 10.1078 32.0296 9.94331C31.4003 9.81494 30.6068 9.75708 29.8494 9.82398C30.2299 9.47322 30.596 9.13692 30.9314 8.83679C31.8024 8.0521 32.4823 7.47714 32.9872 7.0649L33.0395 7.08479C33.3803 7.1987 34.0656 7.39397 34.7093 7.32707C35.3531 7.26017 35.9572 6.92388 36.3269 6.56769C36.363 6.53153 36.399 6.49537 36.4351 6.45921C37.0014 6.35073 37.5279 6.05059 37.8633 5.72514C38.2348 5.36896 38.3683 4.99108 38.4404 4.56257C38.5071 4.13949 38.5071 3.6694 38.3484 3.2662C38.2096 2.91544 37.9463 2.60988 37.4468 2.30432C37.4359 2.27901 37.4269 2.25189 37.4215 2.232C37.261 1.82881 36.9418 1.49251 36.2981 1.14175C35.6543 0.796415 34.6859 0.429382 33.8041 0.216032C32.9277 0.0044912 32.1396 -0.0569823 31.3209 0.0551164C30.5058 0.169023 29.6565 0.45831 28.7548 0.975411C27.8531 1.49251 26.8992 2.23562 25.7613 3.28971C25.5972 3.4452 25.4313 3.60431 25.2564 3.77065C25.0346 3.96772 24.8038 4.17384 24.5657 4.39081C23.4314 5.45032 22.1132 6.81359 20.9681 8.15335C20.1801 9.07907 19.4678 9.98851 18.9322 10.7063C18.6328 10.1892 18.2253 9.60521 17.5977 9.0429C17.3146 8.65056 16.9593 8.24194 16.4905 7.8496C15.7024 7.18785 14.5988 6.56769 13.4086 6.19523C12.2184 5.82278 10.9453 5.69983 9.65233 5.80831C8.35394 5.91137 7.03933 6.24767 6.10702 6.73403C5.39651 7.10649 4.90601 7.56573 4.53092 8.05752C3.82403 8.50772 3.37681 9.05556 3.01614 9.61244C2.60319 10.2688 2.31466 10.9359 2.18662 11.4675C2.14514 11.623 2.12531 11.7622 2.10908 11.8906C2.08383 11.9014 2.05678 11.9159 2.03154 11.9322C1.71235 12.113 1.41841 12.4493 1.27955 12.8615C1.13529 12.8922 0.985615 12.9447 0.83594 13.0315C0.464458 13.243 0.129042 13.6516 0.0316633 14.1524C-0.0657155 14.6533 0.0731394 15.2481 0.289537 15.6712C0.453638 15.9858 0.661019 16.2082 0.84135 16.3583C0.85217 16.389 0.866596 16.4197 0.882826 16.4468C0.960369 16.5969 1.04693 16.7253 1.13529 16.8338C1.02168 16.926 0.872006 17.0706 0.769218 17.3039C0.614133 17.6456 0.572657 18.1771 0.722332 18.7394C0.84676 19.1933 1.09381 19.6688 1.51038 20.0304C1.70153 20.4173 1.99908 20.7843 2.42826 21.0483C3.04139 21.4262 3.9178 21.5962 4.65896 21.5708C5.40553 21.551 6.00964 21.3376 6.39555 21.1008C6.63178 20.9561 6.78687 20.806 6.91129 20.6505C7.08622 20.609 7.25212 20.562 7.39999 20.5113C7.74082 20.6976 8.12132 20.8838 8.66772 21.0483C9.37462 21.2599 10.3574 21.4407 11.1148 21.4823C11.4286 21.4985 11.7081 21.4877 11.9389 21.466C11.8975 21.6522 11.8668 21.8583 11.8614 22.0662C11.856 22.5671 12.0056 23.1004 12.2942 23.5651C12.4276 23.7821 12.5935 23.9828 12.7829 24.1654C12.8135 24.2214 12.8496 24.2793 12.8857 24.3353C13.1742 24.8 13.5962 25.1978 14.1173 25.4563C14.6421 25.7149 15.2606 25.8342 15.8738 25.8541C16.4869 25.8794 17.0946 25.8017 17.5797 25.5702C17.9205 25.4057 18.1982 25.1616 18.3984 24.9555C18.6256 24.9139 18.8366 24.8524 19.0332 24.7638C19.0999 24.8416 19.1828 24.9447 19.2856 25.073C19.7743 25.6986 20.7643 26.9841 22.1403 28.53C23.5216 30.0705 25.2943 31.8622 26.8758 33.2996C28.4573 34.7352 29.8494 35.8164 31.6473 37.0513C33.4416 38.2916 35.6362 39.6874 38.022 40.756C40.4078 41.83 42.9847 42.5749 45.5671 43.0974C48.1548 43.6236 50.7408 43.9237 53.0707 43.9707C55.3951 44.0177 57.4563 43.8062 59.2452 43.3813C61.0341 42.9528 62.5489 42.3163 63.6867 41.5931C63.739 41.5624 63.7841 41.5317 63.831 41.5045C64.3413 41.2677 64.8048 41.0146 65.2232 40.756C66.3665 40.0328 67.1401 39.2264 67.6504 38.4001C68.1554 37.5738 68.397 36.7204 68.5377 35.9466C68.6711 35.171 68.7018 34.4749 68.6044 33.7914C68.507 33.1044 68.2798 32.4372 68.0886 31.9671C67.8975 31.497 67.7478 31.2222 67.6667 31.0775L67.645 31.0595ZM9.30429 11.6429C9.17625 11.9683 9.12937 12.3715 9.12937 12.7747C9.12937 13.2249 9.19068 13.6787 9.52069 14.2067C9.53151 14.223 9.54052 14.2374 9.55134 14.2537C9.74249 14.4182 9.93184 14.5791 10.1284 14.7184C10.7271 15.1523 11.3186 15.4271 11.8956 15.5971C11.9425 15.6133 11.993 15.6278 12.0399 15.6441C11.9678 15.3855 11.8902 15.1215 11.8073 14.854C11.5711 14.0892 11.2663 13.2683 10.9164 12.6481C10.8858 12.5867 10.8497 12.5234 10.8137 12.4673C10.6748 12.3227 10.536 12.2034 10.4007 12.1057C10.04 11.8418 9.70463 11.7333 9.39626 11.6664C9.3656 11.6573 9.33495 11.6465 9.30429 11.6429ZM44.229 26.4869C43.9657 26.637 43.6682 26.7654 43.3833 26.8431C43.2588 26.9516 43.1056 27.0709 42.9252 27.1848C42.6006 27.3964 42.1931 27.5989 41.8072 27.6965C41.7549 27.7073 41.7098 27.7164 41.6575 27.7272L41.6377 27.7525C41.3491 28.031 40.9272 28.3365 40.3952 28.4812C40.3176 28.5011 40.2401 28.5173 40.1626 28.5336C40.1427 28.5535 40.1211 28.5698 40.1012 28.5897C39.8127 28.8735 39.3907 29.1737 38.8588 29.3183C38.3286 29.463 37.6938 29.4467 37.133 29.2297C36.5722 29.0073 36.0871 28.5842 35.8454 28.1286C35.8256 28.0816 35.7985 28.04 35.7841 27.9948C35.5569 27.8032 35.3766 27.5808 35.2539 27.3548C35.0123 26.8955 35.0123 26.4092 35.1403 25.9807C35.2684 25.5467 35.5262 25.1634 35.8256 24.9212C36.042 24.7403 36.2836 24.6373 36.4549 24.565C36.491 24.4872 36.5325 24.4149 36.574 24.348C36.3936 24.5035 36.2079 24.621 35.9915 24.6933C35.6831 24.8018 35.3008 24.8181 35.0231 24.7711C34.9311 24.7548 34.8482 24.7349 34.7815 24.7096C34.4929 24.8958 34.1269 25.0604 33.7356 25.1598C33.6165 25.2791 33.4669 25.4021 33.2865 25.5214C32.9259 25.7637 32.4263 25.9752 31.9106 26.0584C33.9051 27.7327 36.3846 29.7378 38.5233 31.2873C40.8785 32.9977 42.817 34.1494 44.5843 35.086C46.3461 36.0207 47.9384 36.7349 49.4135 37.1381C50.8923 37.5413 52.2574 37.6281 53.572 37.6444C54.892 37.6606 56.1633 37.6028 57.4004 37.2827C58.385 37.0296 59.348 36.6065 60.1 36.1039C60.466 35.6175 60.6878 35.1022 60.8213 34.5851C61.0269 33.8095 61.0431 33.0357 60.7546 32.3215C60.6987 32.1768 60.6265 32.0322 60.5382 31.8875C60.2605 31.5874 59.9142 31.2728 59.5067 30.9311C58.5437 30.1355 57.2075 29.1899 55.3843 28.4251C53.5593 27.6549 51.2403 27.0655 49.2314 26.7672C47.2261 26.4725 45.531 26.4725 44.6654 26.4833C44.4869 26.4815 44.348 26.4815 44.229 26.4869Z" fill="#5E5E7B"/>
<path opacity="0.3" fill-rule="evenodd" clip-rule="evenodd" d="M68.2366 31.9418C68.2889 31.8894 68.3339 31.8387 68.3754 31.7809C68.581 31.7501 68.9741 31.6977 69.3294 31.4753C69.7009 31.2475 70.0363 30.8389 70.195 30.4411C70.3555 30.0488 70.3392 29.6709 70.2419 29.284C70.1445 28.897 69.9587 28.4993 69.7477 28.2552C69.5566 28.0382 69.3456 27.946 69.1959 27.8936C69.1292 27.7128 69.0463 27.5428 68.9543 27.4036C68.9543 27.2282 68.9489 27.0112 68.9074 26.7672C68.8407 26.3748 68.6712 25.9138 68.4277 25.5739C68.2366 25.3008 67.9895 25.0983 67.7371 24.9537C67.6649 24.8036 67.5874 24.6644 67.5008 24.5397C67.3818 24.3697 67.2429 24.2305 67.0987 24.1111C67.2123 24.0334 67.3349 23.9466 67.4702 23.8417C67.8723 23.5326 68.3249 23.1077 68.7938 22.5598C69.2627 22.012 69.7477 21.3448 69.9696 20.7572C70.186 20.1732 70.1445 19.6724 69.9587 19.2945C69.7838 18.9221 69.4736 18.6635 69.1076 18.4465C69.0877 18.3796 69.0607 18.3182 69.03 18.2549C68.8497 17.877 68.5305 17.6185 68.1482 17.3979C67.7821 17.1863 67.3548 17.0055 66.8913 16.9893C67.1023 16.803 67.3187 16.6385 67.5261 16.4993C67.9751 16.1937 68.3971 15.9984 68.6658 15.7236C68.929 15.4506 69.0372 15.098 69.0571 14.7057C69.0823 14.3079 69.021 13.8686 68.8713 13.5485C68.7162 13.2339 68.4746 13.0314 68.1644 12.8977C68.1284 12.8814 68.0923 12.8669 68.0562 12.8506C68.0256 12.7313 67.9895 12.6174 67.9372 12.5143C67.7875 12.1943 67.5459 11.9972 67.2303 11.858C66.922 11.7242 66.5451 11.6465 65.9734 11.6411C65.4072 11.6302 64.6498 11.6935 64.0204 11.8381C63.3911 11.9828 62.8916 12.2106 62.5201 12.4384C62.4317 12.4945 62.3506 12.5523 62.273 12.6029C62.0927 12.1799 61.8204 11.849 61.3768 11.6158L61.3605 11.6049L61.3443 11.5742C61.164 11.1457 60.8917 10.8148 60.4427 10.5761C59.999 10.3393 59.3751 10.2037 58.7475 10.2091C58.1182 10.2199 57.4852 10.37 56.928 10.5544C56.3762 10.7352 55.9073 10.9468 55.6495 11.1583C55.3916 11.3699 55.3447 11.5868 55.314 11.6754C55.2834 11.7676 55.2672 11.7369 55.0562 11.5561C54.8452 11.3699 54.4376 11.039 53.8552 10.8329C53.2673 10.6267 52.5099 10.5544 51.6136 10.6882C50.712 10.8274 49.6661 11.1746 48.851 11.623C48.0413 12.0732 47.4642 12.6156 47.0368 13.1002L47.0062 13.1363C46.9178 13.1978 46.8313 13.2647 46.7537 13.328C46.6149 12.8633 46.3678 12.4908 45.9963 12.2016C45.9134 12.1401 45.8214 12.0768 45.724 12.0208C45.5798 11.679 45.3634 11.3952 45.0694 11.1674C44.6673 10.8528 44.1209 10.6394 43.5132 10.6087C42.9109 10.5779 42.24 10.7334 41.7189 10.9142C41.1941 11.095 40.8172 11.312 40.4764 11.6591C40.3159 11.8237 40.1626 12.0153 40.0184 12.2269C39.7352 12.3661 39.4972 12.536 39.2808 12.7584C38.9364 13.1092 38.637 13.5956 38.3178 14.0819C38.1429 14.3513 37.9626 14.6135 37.7931 14.8576C37.7624 14.8521 37.7209 14.8467 37.665 14.8413C37.5009 14.8359 37.1962 14.8666 36.9022 14.9389C36.7273 14.9859 36.5524 15.0474 36.3865 15.1252C36.3504 14.825 36.2783 14.5213 36.1503 14.1542C35.9898 13.7004 35.7481 13.1526 35.346 12.7331C35.2125 12.5939 35.0629 12.4691 34.8933 12.3607C34.7653 12.1274 34.6102 11.896 34.4191 11.6989C34.0169 11.2813 33.4561 10.9902 32.6212 10.8256C31.9918 10.6973 31.1984 10.6394 30.441 10.7063C30.8215 10.3555 31.1875 10.0192 31.523 9.71911C32.394 8.93442 33.0738 8.35946 33.5787 7.94723L33.631 7.96712C33.9719 8.08102 34.6571 8.27629 35.3009 8.20939C35.9447 8.1425 36.5488 7.8062 36.9185 7.45002C36.9545 7.41386 36.9906 7.3777 37.0267 7.34153C37.5929 7.23305 38.1195 6.93292 38.4549 6.60747C38.8264 6.25128 38.9598 5.8734 39.0319 5.44489C39.0987 5.02181 39.0987 4.55172 38.94 4.14853C38.8011 3.79777 38.5378 3.49221 38.0383 3.18665C38.0275 3.16133 38.0185 3.13421 38.0131 3.11433C37.8526 2.71113 37.5334 2.37484 36.8896 2.02408C36.2458 1.67874 35.2774 1.31171 34.3956 1.09836C33.5192 0.886815 32.7312 0.825342 31.9125 0.937441C31.0974 1.05135 30.248 1.34063 29.3464 1.85774C28.4447 2.37484 27.4908 3.11794 26.3529 4.17203C26.1888 4.32752 26.0229 4.48663 25.8479 4.65297C25.6261 4.85005 25.3953 5.05617 25.1573 5.27313C24.023 6.33264 22.7048 7.69591 21.5597 9.03567C20.7716 9.96139 20.0593 10.8708 19.5237 11.5886C19.2244 11.0715 18.8168 10.4875 18.1893 9.92523C17.9062 9.53288 17.5509 9.12427 17.082 8.73192C16.294 8.07018 15.1904 7.45002 14.0002 7.07756C12.81 6.7051 11.5369 6.58215 10.2439 6.69064C8.9455 6.7937 7.63088 7.12999 6.69857 7.61636C5.98807 7.98881 5.49757 8.44806 5.12248 8.93985C4.41558 9.39005 3.96836 9.93789 3.6077 10.4948C3.19474 11.1511 2.90621 11.8183 2.77817 12.3498C2.7367 12.5053 2.71686 12.6445 2.70063 12.7729C2.67538 12.7837 2.64833 12.7982 2.62309 12.8145C2.3039 12.9953 2.00996 13.3316 1.87111 13.7438C1.72684 13.7746 1.57717 13.827 1.42749 13.9138C1.05601 14.1253 0.720595 14.5339 0.623216 15.0348C0.525837 15.5356 0.664692 16.1304 0.881089 16.5535C1.04519 16.8681 1.25257 17.0905 1.4329 17.2406C1.44372 17.2713 1.45815 17.302 1.47438 17.3292C1.55192 17.4792 1.63848 17.6076 1.72684 17.7161C1.61323 17.8083 1.46356 17.9529 1.36077 18.1862C1.20569 18.5279 1.16421 19.0595 1.31388 19.6218C1.43831 20.0756 1.68537 20.5511 2.10193 20.9127C2.29308 21.2996 2.59063 21.6667 3.01982 21.9306C3.63294 22.3085 4.50935 22.4785 5.25051 22.4532C5.99708 22.4333 6.60119 22.2199 6.9871 21.9831C7.22334 21.8384 7.37842 21.6884 7.50285 21.5329C7.67777 21.4913 7.84367 21.4443 7.99155 21.3937C8.33237 21.5799 8.71287 21.7661 9.25927 21.9306C9.96617 22.1422 10.949 22.323 11.7064 22.3646C12.0201 22.3808 12.2997 22.37 12.5305 22.3483C12.489 22.5345 12.4583 22.7406 12.4529 22.9486C12.4475 23.4494 12.5972 23.9828 12.8857 24.4474C13.0192 24.6644 13.1851 24.8651 13.3744 25.0477C13.4051 25.1038 13.4412 25.1616 13.4772 25.2177C13.7657 25.6823 14.1877 26.0801 14.7089 26.3387C15.2336 26.5972 15.8522 26.7165 16.4653 26.7364C17.0784 26.7617 17.6861 26.684 18.1712 26.4526C18.5121 26.288 18.7898 26.0439 18.9899 25.8378C19.2172 25.7962 19.4281 25.7348 19.6247 25.6462C19.6914 25.7239 19.7744 25.827 19.8772 25.9554C20.3659 26.5809 21.3559 27.8665 22.7318 29.4123C24.1131 30.9528 25.8858 32.7446 27.4673 34.182C29.0488 35.6175 30.441 36.6987 32.2389 37.9336C34.0332 39.174 36.2278 40.5698 38.6136 41.6383C40.9994 42.7123 43.5763 43.4572 46.1586 43.9797C48.7464 44.5059 51.3323 44.806 53.6622 44.853C55.9867 44.9 58.0479 44.6885 59.8367 44.2636C61.6256 43.8351 63.1404 43.1987 64.2783 42.4755C64.3306 42.4447 64.3757 42.414 64.4226 42.3869C64.9329 42.15 65.3964 41.8969 65.8147 41.6383C66.958 40.9151 67.7316 40.1087 68.242 39.2824C68.7469 38.4562 68.9885 37.6028 69.1292 36.8289C69.2626 36.0533 69.2933 35.3572 69.1959 34.6737C69.0985 33.9867 68.8713 33.3195 68.6802 32.8494C68.489 32.3793 68.3394 32.1045 68.2582 31.9599L68.2366 31.9418ZM9.89404 12.5234C9.766 12.8488 9.71912 13.252 9.71912 13.6552C9.71912 14.1054 9.78043 14.5592 10.1104 15.0872C10.1213 15.1035 10.1303 15.1179 10.1411 15.1342C10.3322 15.2987 10.5216 15.4597 10.7182 15.5989C11.3169 16.0328 11.9083 16.3076 12.4854 16.4776C12.5323 16.4939 12.5828 16.5083 12.6297 16.5246C12.5575 16.266 12.48 16.0021 12.397 15.7345C12.1608 14.9697 11.856 14.1488 11.5062 13.5287C11.4755 13.4672 11.4395 13.4039 11.4034 13.3479C11.2646 13.2032 11.1257 13.0839 10.9905 12.9862C10.6298 12.7223 10.2944 12.6138 9.98601 12.5469C9.95535 12.5397 9.9247 12.5288 9.89404 12.5234ZM44.8188 27.3692C44.5555 27.5193 44.2579 27.6477 43.973 27.7254C43.8486 27.8339 43.6953 27.9532 43.515 28.0671C43.1904 28.2787 42.7828 28.4812 42.3969 28.5788C42.3446 28.5897 42.2995 28.5987 42.2472 28.6096L42.2274 28.6349C41.9389 28.9133 41.5169 29.2189 40.9849 29.3635C40.9074 29.3834 40.8298 29.3997 40.7523 29.4159C40.7325 29.4358 40.7108 29.4521 40.691 29.472C40.4025 29.7559 39.9805 30.056 39.4485 30.2006C38.9183 30.3453 38.2836 30.329 37.7227 30.112C37.1619 29.8897 36.6768 29.4666 36.4352 29.0109C36.4153 28.9639 36.3883 28.9223 36.3739 28.8771C36.1466 28.6855 35.9663 28.4631 35.8437 28.2371C35.602 27.7779 35.602 27.2915 35.7301 26.863C35.8581 26.4291 36.116 26.0458 36.4153 25.8035C36.6317 25.6227 36.8734 25.5196 37.0447 25.4473C37.0808 25.3695 37.1222 25.2972 37.1637 25.2303C36.9834 25.3858 36.7976 25.5033 36.5812 25.5757C36.2729 25.6841 35.8906 25.7004 35.6129 25.6534C35.5209 25.6371 35.4379 25.6172 35.3712 25.5919C35.0827 25.7782 34.7166 25.9427 34.3253 26.0421C34.2063 26.1615 34.0566 26.2844 33.8763 26.4037C33.5156 26.646 33.0161 26.8576 32.5003 26.9407C34.4948 28.615 36.9744 30.6201 39.1131 32.1696C41.4682 33.88 43.4068 35.0317 45.174 35.9683C46.9359 36.9031 48.5282 37.6172 50.0033 38.0204C51.482 38.4236 52.8471 38.5104 54.1617 38.5267C55.4817 38.543 56.7531 38.4851 57.9902 38.1651C58.9748 37.9119 59.9377 37.4889 60.6897 36.9862C61.0558 36.4999 61.2776 35.9846 61.411 35.4675C61.6166 34.6918 61.6328 33.918 61.3443 33.2038C61.2884 33.0592 61.2163 32.9145 61.1279 32.7699C60.8502 32.4697 60.504 32.1551 60.0964 31.8134C59.1335 31.0179 57.7972 30.0723 55.9741 29.3075C54.1491 28.5372 51.83 27.9478 49.8212 27.6495C47.8159 27.3548 46.1208 27.3548 45.2552 27.3656C45.0766 27.3638 44.9378 27.3638 44.8188 27.3692Z" fill="#5E5E7B"/>
<path fill-rule="evenodd" clip-rule="evenodd" d="M7.44867 19.5782C7.87065 19.8205 8.29984 20.0646 8.99952 20.2761C9.70642 20.4877 10.6892 20.6685 11.4466 20.71C12.204 20.7462 12.7342 20.6377 12.9776 20.6016C13.2193 20.5654 13.1742 20.5961 13.0696 20.8438C12.9614 21.097 12.7973 21.5671 12.7865 22.0679C12.7811 22.5687 12.9307 23.1021 13.2193 23.5613C13.5078 24.026 13.9298 24.4183 14.4563 24.6769C14.9775 24.9354 15.5996 25.0584 16.2128 25.0801C16.8259 25.1054 17.4282 25.0277 17.9187 24.7908C18.4038 24.5576 18.7645 24.1598 18.9448 23.9428C19.1305 23.7204 19.1305 23.6734 19.6192 24.299C20.1133 24.9192 21.0979 26.2101 22.4739 27.756C23.8552 29.2964 25.6279 31.0882 27.2094 32.5256C28.7909 33.9612 30.1884 35.037 31.9809 36.2773C33.7788 37.5176 35.9753 38.9134 38.361 39.982C40.7468 41.056 43.3237 41.8009 45.9061 42.3234C48.4884 42.8459 51.0798 43.1497 53.4043 43.1967C55.7287 43.2437 57.7899 43.0322 59.5788 42.6018C61.3677 42.1788 62.8825 41.5423 64.0258 40.8191C65.1691 40.0959 65.9427 39.2895 66.4476 38.4632C66.958 37.637 67.1996 36.7836 67.3348 36.0097C67.4737 35.2395 67.5044 34.538 67.4016 33.8545C67.3042 33.1729 67.077 32.5003 66.8912 32.0302C66.7001 31.5601 66.5468 31.2853 66.4638 31.1407C66.3809 30.996 66.3665 30.9797 66.5612 30.9544C66.7614 30.9237 67.1689 30.8767 67.5404 30.6489C67.9119 30.421 68.2473 30.0088 68.406 29.6147C68.5611 29.2169 68.5449 28.839 68.4475 28.4521C68.3501 28.0652 68.1698 27.671 67.9588 27.4233C67.7478 27.181 67.5062 27.0924 67.3601 27.0454C67.2158 26.9984 67.1689 26.9984 67.1599 26.8339C67.1545 26.6639 67.1852 26.3331 67.1184 25.9353C67.0463 25.5429 66.8822 25.0873 66.6388 24.7474C66.3971 24.4021 66.0779 24.1743 65.7515 24.0242C65.4269 23.8741 65.0915 23.7964 64.8968 23.7602C64.7002 23.7186 64.6389 23.7186 64.7832 23.621C64.9274 23.5234 65.2719 23.3263 65.674 23.0117C66.0761 22.7025 66.5288 22.2776 67.003 21.7298C67.4719 21.1819 67.957 20.5148 68.1734 19.9308C68.3952 19.3468 68.3483 18.8405 68.168 18.4626C67.9876 18.0811 67.6685 17.8262 67.2862 17.6056C66.9093 17.3832 66.4711 17.2024 65.9932 17.197C65.5135 17.1862 65.0032 17.3525 64.5866 17.5695C64.17 17.781 63.849 18.0396 63.6272 18.2095C63.4108 18.3849 63.2864 18.4789 63.2413 18.4934C63.1999 18.5097 63.2305 18.4464 63.4271 18.1517C63.6236 17.8515 63.9879 17.3254 64.4009 16.8499C64.8174 16.3798 65.2881 15.9712 65.7353 15.6674C66.1843 15.3618 66.6063 15.1666 66.875 14.8918C67.1383 14.6187 67.2465 14.2716 67.2663 13.8738C67.2862 13.4815 67.2303 13.0367 67.0752 12.7221C66.9255 12.4021 66.6838 12.205 66.3737 12.0658C66.0599 11.932 65.683 11.8542 65.1168 11.8488C64.5451 11.838 63.7877 11.9013 63.1584 12.0459C62.529 12.1905 62.0295 12.4184 61.658 12.6462C61.2865 12.874 61.0449 13.1 60.9313 13.1994C60.8177 13.2971 60.8339 13.2718 60.7978 12.9987C60.7564 12.7257 60.6698 12.2086 60.4841 11.7801C60.3037 11.357 60.0314 11.0207 59.5878 10.7875C59.1388 10.5506 58.5167 10.415 57.8873 10.4205C57.2579 10.4313 56.625 10.5814 56.0678 10.7622C55.5159 10.9484 55.0471 11.16 54.7892 11.3715C54.5313 11.583 54.4844 11.7946 54.4538 11.8886C54.4285 11.9808 54.4123 11.9501 54.1959 11.7693C53.9849 11.583 53.5774 11.2522 52.9949 11.046C52.4124 10.8399 51.6551 10.7622 50.7534 10.9014C49.8517 11.0352 48.8058 11.3878 47.9961 11.8362C47.181 12.2809 46.6094 12.8288 46.1766 13.3133C45.7438 13.7997 45.4553 14.2282 45.3056 14.4705C45.1505 14.7128 45.1361 14.776 45.1307 14.7345C45.1199 14.6983 45.1199 14.5591 45.1199 14.1703C45.1199 13.7889 45.1199 13.147 44.9918 12.6263C44.8638 12.0983 44.6113 11.6915 44.2092 11.3805C43.807 11.0659 43.2606 10.8526 42.6529 10.8219C42.0506 10.7911 41.3798 10.9466 40.8586 11.1274C40.3339 11.3082 39.957 11.5198 39.6161 11.8723C39.2753 12.2231 38.9724 12.7094 38.6532 13.1958C38.334 13.6822 38.004 14.1667 37.7299 14.4922C37.4558 14.8176 37.2448 14.9876 37.1222 15.0509C37.0031 15.1069 36.9725 15.0617 36.8084 15.0563C36.6389 15.0509 36.3341 15.0762 36.0402 15.1539C35.7462 15.2317 35.4577 15.351 35.1998 15.521C34.942 15.6855 34.7147 15.8988 34.4569 16.1104C34.199 16.3219 33.9105 16.5389 33.6995 16.7251C33.4885 16.9168 33.3496 17.0813 33.2468 17.2259C33.1386 17.3706 33.0611 17.4953 33.0052 17.4845C32.9439 17.4791 32.897 17.3398 32.8609 17.2368C32.8195 17.1283 32.7888 17.056 32.8663 17.009C32.9439 16.962 33.1242 16.9475 33.3605 16.839C33.5931 16.736 33.8816 16.5389 34.0926 16.3219C34.3036 16.1104 34.4424 15.8826 34.5254 15.577C34.6083 15.2769 34.639 14.8954 34.6174 14.5229C34.5921 14.1505 34.52 13.7889 34.3595 13.3296C34.199 12.8758 33.9574 12.328 33.5552 11.9085C33.1531 11.4944 32.5922 11.2052 31.7609 11.0352C30.926 10.8707 29.8188 10.8237 28.8756 11.0189C27.9271 11.2196 27.139 11.659 26.4484 12.243C25.7577 12.827 25.1698 13.5556 24.7064 14.2174C24.2429 14.8791 23.9129 15.4721 23.6298 16.0254C23.3521 16.5787 23.1249 17.0958 23.0167 17.6436C22.9139 18.1914 22.9283 18.77 22.9337 19.043C22.9445 19.316 22.9445 19.2853 22.656 18.9345C22.3675 18.5892 21.7904 17.9166 21.5271 17.5749C21.2584 17.2332 21.3053 17.2187 21.8211 16.6709C22.3368 16.123 23.3214 15.0491 24.8055 13.5647C26.2897 12.0821 28.2733 10.2017 29.7322 8.89448C31.1857 7.58726 32.1072 6.85862 32.5724 6.50786C33.0304 6.16252 33.0304 6.19326 33.3767 6.30716C33.7175 6.42107 34.3974 6.61634 35.0411 6.54944C35.6849 6.47712 36.2926 6.14625 36.6641 5.79006C37.0356 5.43388 37.169 5.05057 37.2358 4.62749C37.3079 4.19898 37.3079 3.72889 37.1474 3.3257C36.9869 2.92793 36.6677 2.59163 36.0239 2.24087C35.3802 1.89554 34.4118 1.5285 33.5354 1.31515C32.6536 1.10361 31.8655 1.04214 31.0468 1.15424C30.2317 1.26814 29.3824 1.55743 28.4807 2.07453C27.579 2.59163 26.6251 3.33474 25.4872 4.38883C24.3529 5.44834 23.0347 6.81161 21.8896 8.15137C20.7445 9.49113 19.7761 10.7911 19.2459 11.5306C18.7158 12.2701 18.6274 12.4346 18.5805 12.4961C18.5336 12.5521 18.5336 12.5124 18.4363 12.243C18.3389 11.979 18.1423 11.4944 17.8069 10.8996C17.4715 10.3048 17.0026 9.60865 16.2146 8.94691C15.4265 8.28516 14.3229 7.66501 13.1327 7.29255C11.9425 6.92009 10.6694 6.79714 9.37641 6.90563C8.08344 7.00869 6.76341 7.34498 5.8311 7.83135C4.89879 8.31771 4.35239 8.95776 3.93943 9.60865C3.52286 10.2595 3.23253 10.9321 3.10449 11.4637C2.97646 11.9953 3.00712 12.3894 3.00712 12.5847C3.00712 12.78 2.97646 12.7818 2.75465 12.7908C2.53826 12.7962 2.1253 12.8107 1.75562 13.0277C1.38414 13.2392 1.05413 13.6478 0.951341 14.1487C0.853962 14.6495 0.992817 15.2443 1.20921 15.6674C1.43102 16.0905 1.73398 16.349 1.94136 16.4883C2.14153 16.6221 2.24973 16.6383 2.17399 16.7215C2.09644 16.8101 1.83857 16.9584 1.6889 17.3001C1.53922 17.6418 1.49233 18.1734 1.64201 18.7357C1.79709 19.2998 2.14153 19.8874 2.75465 20.2707C3.36778 20.6486 4.2496 20.8185 4.99076 20.7932C5.73372 20.7733 6.34144 20.56 6.72194 20.3231C7.11506 20.0953 7.28457 19.8368 7.44867 19.5782ZM13.3239 17.0162C13.1489 16.3075 12.974 15.6005 12.736 14.8357C12.4997 14.0763 12.195 13.2537 11.8451 12.6299C11.5007 12.0097 11.1022 11.5867 10.7415 11.3173C10.3754 11.0533 10.0454 10.9448 9.73167 10.8779C9.4233 10.811 9.13297 10.7803 8.86067 10.8833C8.58296 10.9918 8.31426 11.2341 8.15377 11.5812C7.98967 11.9266 7.93196 12.3713 7.93196 12.827C7.93196 13.2772 7.98786 13.7364 8.32328 14.2589C8.65869 14.7815 9.261 15.3745 9.8597 15.8084C10.4584 16.2424 11.0499 16.5172 11.6269 16.6871C12.2058 16.8607 12.763 16.9385 13.3239 17.0162ZM48.6057 22.0028C48.5948 21.9775 48.703 21.9467 48.7914 21.869C48.8798 21.7913 48.9465 21.6683 48.9825 21.5996C49.0186 21.5309 49.0294 21.5273 49.0384 21.6105C49.0493 21.699 49.0583 21.8835 49.0583 21.9829C49.0637 22.086 49.0637 22.1113 49.033 22.1113C49.0024 22.1167 48.9447 22.1004 48.8473 22.0805C48.7499 22.0588 48.6147 22.0335 48.6057 22.0028ZM53.5936 16.6709C53.8353 16.6908 54.0733 16.7179 54.2843 16.6871C54.4953 16.6564 54.6756 16.5732 54.8559 16.4087C55.0417 16.2442 55.2274 15.9947 55.3248 15.8663C55.4222 15.7379 55.4384 15.7271 55.341 15.991C55.2436 16.2496 55.0363 16.7866 54.8667 17.2097C54.6972 17.6382 54.562 17.9546 54.4592 18.1716C54.3564 18.3885 54.2897 18.5133 54.2266 18.5747C54.1707 18.6416 54.1238 18.6471 54.0769 18.591C54.0354 18.535 54.0048 18.4102 53.9272 18.1264C53.8497 17.8425 53.7361 17.3869 53.6694 17.1193C53.608 16.8463 53.6044 16.7577 53.5936 16.6709ZM60.8231 23.6355C60.8177 24.0893 60.8069 24.5503 60.7455 24.9481C60.6788 25.3459 60.5598 25.6876 60.5039 25.8521C60.4516 26.013 60.4678 25.9968 60.5454 25.8358C60.6175 25.6804 60.7564 25.3766 60.9313 25.1072C61.1062 24.8342 61.3172 24.601 61.5498 24.4346C61.777 24.2737 62.0295 24.1815 62.1431 24.1453C62.2567 24.1037 62.2351 24.12 62.1125 24.1092C61.9934 24.0983 61.7716 24.0567 61.5408 23.9754C61.3082 23.894 61.0665 23.7638 60.8231 23.6355ZM26.2139 22.359C27.5953 23.6192 28.9712 24.8812 31.0486 26.6422C33.126 28.4051 35.8977 30.6669 38.2528 32.3774C40.608 34.0878 42.5465 35.2395 44.3138 36.1761C46.0756 37.1108 47.6679 37.825 49.1484 38.2282C50.6218 38.6314 51.9887 38.7182 53.3015 38.7344C54.6215 38.7507 55.8928 38.6874 57.1299 38.3728C58.3616 38.0528 59.5626 37.4742 60.356 36.7962C61.1495 36.1236 61.5462 35.3498 61.7482 34.5741C61.9538 33.7985 61.97 33.0246 61.6815 32.3105C61.3929 31.5981 60.8051 30.9418 59.8421 30.1462C58.8791 29.3453 57.5483 28.4051 55.7197 27.6403C53.8948 26.8701 51.5757 26.2806 49.5722 25.9823C47.5615 25.6876 45.8664 25.6876 45.0008 25.693C44.1407 25.7039 44.11 25.7183 43.9747 25.8377C43.8359 25.9624 43.5942 26.1884 43.2678 26.4018C42.9433 26.6133 42.5303 26.8158 42.1444 26.9134C41.7585 27.0111 41.3978 27.0111 41.2175 27.0111C41.0317 27.0111 41.0317 27.0111 40.9596 27.1394C40.8821 27.2678 40.727 27.5264 40.4439 27.8066C40.1553 28.0851 39.728 28.3906 39.2014 28.5353C38.6712 28.6799 38.031 28.6636 37.4702 28.4467C36.913 28.2243 36.4297 27.8012 36.1862 27.3401C35.9392 26.8863 35.9392 26.4 36.0672 25.966C36.1953 25.5375 36.4531 25.1542 36.7525 24.9119C37.0464 24.6697 37.3818 24.5612 37.5405 24.4889C37.6956 24.4111 37.6848 24.3641 37.6956 24.1019C37.7118 23.8325 37.7569 23.348 37.82 23.0171C37.8814 22.6808 37.9535 22.5 37.9841 22.4223C38.0148 22.3445 38.0004 22.3753 37.8507 22.5561C37.6956 22.7423 37.4125 23.0732 37.1438 23.3407C36.8805 23.6047 36.6389 23.8 36.3251 23.9085C36.0167 24.017 35.6398 24.0332 35.3567 23.9862C35.079 23.9392 34.8987 23.8307 34.7743 23.7946C34.6552 23.7584 34.5939 23.7837 34.4388 23.9591C34.2892 24.1345 34.0475 24.4545 33.6237 24.7348C33.1964 25.0186 32.5922 25.2627 31.9953 25.2989C31.3966 25.335 30.8052 25.1705 30.3111 24.9734C29.8224 24.7763 29.4238 24.5449 29.0794 24.1978C28.7296 23.847 28.4248 23.3769 28.239 22.9828C28.0479 22.585 27.9704 22.2704 27.9253 22.1294C27.8784 21.9956 27.8694 22.0371 27.7143 22.1095C27.5646 22.1764 27.2761 22.2704 27.0038 22.3102C26.7279 22.359 26.47 22.359 26.2139 22.359Z" fill="url(#paint0_linear)"/>
<path fill-rule="evenodd" clip-rule="evenodd" d="M47.9043 23.6284C50.8256 23.6284 53.7434 24.1925 56.6449 25.3081C59.5464 26.4291 61.8907 27.8448 63.6796 29.5552C65.4739 31.2656 66.3647 32.9453 66.3647 34.5888C66.3647 36.9194 65.3026 38.6551 63.1693 39.8032C61.0414 40.9495 58.2426 41.5245 54.7749 41.5245C45.2985 41.5245 36.8211 38.0675 29.3428 31.1535C26.7153 28.7362 23.6732 25.2882 20.2306 20.8097C19.0296 19.2548 18.2668 18.2784 17.9531 17.8843C17.9531 18.009 17.9422 18.1067 17.917 18.179C17.917 18.499 17.8809 18.9998 17.8142 19.6833C17.7727 19.9364 17.7312 20.2148 17.6952 20.5313C17.6645 20.8459 17.6429 21.0122 17.6429 21.0267C17.8286 21.3105 17.9152 21.636 17.9152 21.9922C17.9152 22.3538 17.7962 22.6593 17.5599 22.9215C17.3237 23.18 17.055 23.3084 16.7611 23.3084C16.2147 23.3084 15.854 22.9884 15.6737 22.3429C15.6737 22.1259 15.7458 21.7119 15.8955 21.108C16.0397 20.4987 16.1119 19.9762 16.1119 19.5477C16.1119 18.188 16.0199 16.9224 15.8233 15.7598C15.6322 14.5973 15.313 13.4871 14.8748 12.4276C14.4312 11.3735 13.7928 10.5418 12.9525 9.9325C12.1121 9.32319 11.1185 9.01763 9.95897 9.01763C8.59928 9.01763 7.62008 9.39551 7.02138 10.1495C6.41907 10.898 6.11972 11.7514 6.11972 12.697C6.11972 14.0603 6.69137 15.2952 7.83648 16.4071C8.98158 17.5191 10.4603 18.2875 12.2744 18.716C12.5467 18.716 12.7595 18.6798 12.9182 18.6075L12.9849 18.5822C13.0571 18.5822 13.0877 18.6075 13.0877 18.6654C13.0877 18.7539 13.0408 18.8154 12.9543 18.8516C11.728 18.8516 10.6352 18.6599 9.67225 18.273C8.70928 17.8915 7.95189 17.3889 7.39466 16.7687C6.83744 16.1486 6.42629 15.5139 6.15218 14.8468C5.88349 14.185 5.74463 13.5233 5.74463 12.8633C5.74463 12.4294 5.80054 12.0063 5.91415 11.5869C6.02775 11.1638 6.24415 10.7027 6.56334 10.2019C6.87711 9.70107 7.39827 9.29245 8.12501 8.97785C8.85174 8.66868 9.73356 8.50776 10.7795 8.50776C11.9138 8.50776 12.9182 8.73015 13.8054 9.16951C14.6873 9.60886 15.3869 10.1404 15.8973 10.766C16.4076 11.3916 16.8296 12.104 17.1704 12.8995C17.5112 13.7005 17.7367 14.4074 17.8503 15.0384C17.9639 15.664 18.0198 16.2372 18.0198 16.7543V16.888C18.7465 16.1757 19.7978 14.9607 21.1792 13.2503C22.5659 11.5399 23.8228 9.98493 24.9571 8.58912C26.0914 7.19331 27.3176 5.90779 28.6467 4.73437C29.9703 3.56095 31.0631 2.9209 31.9251 2.81242C32.0856 2.79615 32.302 2.78711 32.5743 2.78711C33.4092 2.78711 34.1558 2.9426 34.8158 3.24093C35.4758 3.54649 35.8365 3.87194 35.9032 4.21185V4.26428C35.9032 4.49752 35.7337 4.66748 35.3929 4.77596C35.1657 4.16665 34.6914 3.9081 33.9647 3.99488C32.9241 4.11964 30.4969 5.95842 26.6883 9.51303C22.8797 13.0676 20.3551 15.7074 19.1072 17.4232C19.5814 17.8373 20.6436 18.8588 22.2864 20.4879C23.9292 22.1169 25.5684 23.7225 27.1968 25.2991C28.8306 26.8757 30.8305 28.6476 33.2001 30.6165C35.566 32.5855 37.8328 34.2959 39.9967 35.7478C42.1607 37.1996 44.4798 38.4237 46.9485 39.4271C49.4226 40.4288 51.675 40.9314 53.7145 40.9314C57.1156 40.9314 59.8836 40.3221 62.0116 39.0926C64.1395 37.8686 65.207 36.0334 65.207 33.5998C65.207 32.6488 64.7796 31.6308 63.914 30.5352C63.0539 29.4449 61.8475 28.4071 60.2966 27.4199C58.7458 26.4381 56.7098 25.6173 54.1942 24.9664C51.675 24.3101 48.943 23.9846 46 23.9846C44.7737 23.9846 43.5979 24.207 42.4799 24.6464C42.0778 24.9519 41.7477 25.1056 41.4845 25.1056H41.4682C40.4007 25.6589 39.7569 26.1959 39.5351 26.7238C39.5152 26.7799 39.4323 26.807 39.2988 26.807C39.2069 26.807 39.1384 26.76 39.0933 26.6732V26.59C39.0933 26.5376 39.1402 26.4562 39.2321 26.3477C39.7731 25.8361 40.3971 25.3913 41.0986 25.0242C40.6766 24.8181 40.4638 24.2287 40.4638 23.2578C40.4638 23.0571 40.4944 22.8492 40.5521 22.6214C40.6081 22.399 40.6603 22.182 40.7018 21.965C40.7271 21.8204 40.7685 21.5564 40.8263 21.1749C40.8822 20.788 40.9543 20.2817 41.0426 19.6562C41.0895 19.3361 41.131 18.9998 41.1617 18.6491C41.1977 18.2983 41.2338 17.962 41.2645 17.6257C41.3005 17.2949 41.3258 17.0001 41.3528 16.7416C41.3727 16.483 41.3997 16.2824 41.4195 16.1377C41.4664 15.9406 41.4718 15.7707 41.4358 15.626C41.4051 15.4814 41.3835 15.3566 41.3835 15.2481C41.3835 15.0872 41.3636 15.0113 41.3168 15.0113C41.2284 14.9751 41.039 15.1089 40.7559 15.4145C40.4728 15.7146 40.1266 16.1594 39.7208 16.7416C39.3133 17.3256 38.8498 18.0181 38.3287 18.8245C37.8039 19.6308 37.2719 20.524 36.7309 21.5112C36.684 21.5474 36.6029 21.5944 36.4893 21.6559C36.3757 21.7173 36.3198 21.7698 36.3198 21.8059C36.1394 21.9506 35.9952 22.0175 35.8816 22.0175L34.9547 21.0411C33.7753 22.6123 32.8682 23.4024 32.2389 23.4024C31.5789 23.4024 31.0379 22.7823 30.6051 21.5474C30.1777 20.3649 29.9613 19.0577 29.9613 17.6257V17.1141C28.488 19.4808 27.3645 20.6578 26.5963 20.6578C25.8696 20.6578 25.5089 20.2908 25.5089 19.5567C25.5089 17.5878 26.1166 15.8882 27.3429 14.4508C28.5637 13.0188 29.79 12.3065 31.018 12.3065C32.1938 12.3065 32.8989 13.2521 33.1261 15.1541C32.1938 14.3116 31.3318 13.8885 30.5384 13.8885C29.7233 13.8885 28.8937 14.4363 28.0588 15.5266C27.2185 16.5861 26.7965 17.5064 26.7965 18.2965C26.7965 18.7973 27.0237 19.045 27.4763 19.045C27.929 19.045 28.8162 17.9656 30.1308 15.7942C30.2913 15.024 30.5834 14.5846 31.018 14.4815C31.1515 14.4617 31.1515 14.6515 31.018 15.0456C31.0379 15.6188 31.0956 16.1721 31.1821 16.709C31.2741 17.246 31.3985 17.774 31.559 18.2947C31.8999 19.3126 32.2497 20.0774 32.6158 20.5783C32.9764 21.0791 33.2704 21.3268 33.4976 21.3268C33.806 21.3268 34.1937 21.0574 34.6517 20.5204C34.5381 20.0811 34.5688 19.6308 34.7437 19.1662C34.9547 18.593 35.2324 18.1175 35.5732 17.7306C35.914 17.3491 36.2476 17.1213 36.5777 17.049C36.758 17.0074 36.886 17.049 36.969 17.1683L37.0519 17.0435C37.1962 16.8211 37.3242 16.6349 37.4378 16.4957C37.4378 16.7904 37.3134 17.1936 37.0718 17.7143C37.0718 17.8897 37.0826 18.0705 37.1024 18.2676C37.1223 18.4954 37.1493 18.6961 37.1691 18.8877C37.1944 19.074 37.2106 19.2385 37.2214 19.3831C37.2323 19.5278 37.2377 19.6164 37.2377 19.6525C37.3765 19.3325 37.5983 18.9293 37.9031 18.443C38.2115 17.9566 38.5378 17.4612 38.8877 16.9495C39.2429 16.4433 39.5946 15.9479 39.9444 15.4778C40.2943 15.0023 40.5936 14.5936 40.8461 14.2537C41.3204 13.6281 41.6756 13.1382 41.9173 12.791C42.1535 12.4403 42.4637 12.2649 42.8496 12.2649C43.0101 12.2649 43.1129 12.2902 43.1543 12.348C43.2012 12.4005 43.2932 12.4728 43.4266 12.5596C43.5402 12.6518 43.5907 12.7964 43.5817 13.0044C43.5727 13.2123 43.5655 13.4853 43.5655 13.8252C43.5655 14.2031 43.5402 14.6732 43.4934 15.2463C43.4519 15.8195 43.396 16.4143 43.3238 17.0345C43.2571 17.6547 43.1904 18.2585 43.1237 18.8642C43.0569 19.4645 43.0101 19.9599 42.9848 20.3523C42.965 20.5331 42.974 20.6777 43.0209 20.797C43.0678 20.9109 43.0876 21.0086 43.0876 21.0755C43.0876 21.5618 43.2012 21.8041 43.4284 21.8041C43.5673 21.8041 43.7783 21.7155 44.0776 21.5456C44.3716 21.381 44.6439 21.1116 44.8927 20.7555C45.2173 20.3577 45.7114 19.6851 46.3714 18.7359C46.5355 17.1502 47.1288 15.749 48.1603 14.5448C49.3866 13.1128 50.6074 12.3951 51.8355 12.3951C53.0148 12.3951 53.7163 13.3461 53.9435 15.2427C53.0166 14.4002 52.1492 13.9825 51.3558 13.9825C50.5407 13.9825 49.7166 14.5304 48.8762 15.6206C48.0359 16.6801 47.6193 17.6004 47.6193 18.3851C47.6193 18.8914 47.8465 19.1391 48.2992 19.1391C48.7518 19.1391 49.6336 18.0542 50.9482 15.8882C51.1087 15.118 51.4009 14.6786 51.8355 14.5701C51.9689 14.5539 51.9689 14.7401 51.8355 15.1342C51.8553 15.7074 51.913 16.2661 52.005 16.8031C52.0933 17.3401 52.2214 17.868 52.3765 18.3851C52.7173 19.4085 53.0725 20.1678 53.4332 20.6687C53.7939 21.1695 54.0878 21.4226 54.315 21.4226C54.6811 21.4226 55.1445 21.0556 55.7108 20.3215C55.8713 20.1244 56.0101 19.9346 56.1328 19.7574C56.2608 19.5766 56.3798 19.4067 56.4934 19.2457C56.6016 19.0704 56.7297 18.8733 56.8793 18.6617C57.2238 17.7939 57.5502 16.8483 57.8531 15.8141C57.8531 15.7417 57.8784 15.6387 57.9252 15.5049C57.9667 15.3711 57.9812 15.2771 57.9559 15.221C57.909 15.1686 57.8784 15.0927 57.8531 14.9932C57.8333 14.8956 57.8116 14.8287 57.7864 14.7925C57.6728 14.2917 57.5033 13.95 57.2761 13.7692C57.1156 13.4329 57.0038 13.1544 56.9352 12.9375V12.8037C56.9352 12.6283 56.9821 12.4728 57.0741 12.3499C57.368 12.1329 57.8423 11.9828 58.5023 11.896C58.6159 11.8761 58.7494 11.9575 58.9099 12.1492C59.0704 12.3354 59.1822 12.5216 59.2507 12.697C59.2976 12.8778 59.3174 13.0026 59.3174 13.0749C59.3174 13.272 59.2399 13.5866 59.0812 14.0151L59.2507 14.5014L59.4202 15.4163C59.4671 15.5917 59.6312 15.9063 59.9089 16.3511C60.192 16.8013 60.3579 17.105 60.403 17.2659C60.9963 16.4595 61.3461 15.984 61.4597 15.8448C62.0675 15.0023 62.7166 14.3405 63.3983 13.856C63.5786 13.7113 63.8563 13.592 64.2278 13.4943C64.6047 13.3967 64.9077 13.3389 65.1511 13.3334C65.3874 13.3226 65.528 13.328 65.5731 13.3443V13.4781C65.3675 13.4781 64.9293 13.7204 64.2495 14.2067C63.2035 15.0637 62.163 16.4957 61.1207 18.5008C61.595 19.0957 62.1053 19.6381 62.6517 20.1443C63.1927 20.6452 63.5227 20.8929 63.6363 20.8929C63.9501 20.8929 64.2855 20.7735 64.6408 20.5313C64.9906 20.289 65.2846 20.0413 65.5226 19.7918C65.7588 19.5386 66.0834 19.1825 66.491 18.7178C66.5379 18.7178 66.6046 18.801 66.6966 18.9601C65.6975 20.4282 64.8824 21.3828 64.2495 21.833C63.9303 22.0663 63.6922 22.1838 63.5335 22.1838C63.4867 22.2001 63.4308 22.2308 63.364 22.276C63.2973 22.3176 63.245 22.3538 63.209 22.3682C63.1783 22.3845 63.1476 22.3935 63.126 22.3935C63.0593 22.3935 62.9817 22.3773 62.9042 22.3411C62.8267 22.3049 62.7401 22.2489 62.6517 22.1657C62.5598 22.0826 62.4822 22.0102 62.4101 21.9379C62.3434 21.8656 62.255 21.7625 62.1414 21.6287C62.0278 21.4949 61.9358 21.381 61.8691 21.2924C61.8024 21.2038 61.7086 21.0755 61.5968 20.9146C61.4832 20.7536 61.3912 20.6307 61.3245 20.5367C61.2109 20.4119 60.9999 20.072 60.6807 19.5188L60.4751 19.9726C59.954 21.2635 59.5482 22.9486 59.2543 25.0261H57.9613C57.487 24.8977 57.2508 24.659 57.2508 24.2974C57.2508 23.9774 57.2923 23.7243 57.3843 23.5489C58.1579 21.363 59.0181 19.5332 59.9666 18.0669C59.8999 17.9783 59.8332 17.8553 59.7664 17.7053C59.6997 17.5552 59.642 17.4413 59.5969 17.369C59.5302 17.2243 59.422 17.0598 59.2723 16.8736C59.1281 16.6819 58.9585 16.4867 58.762 16.2787C58.5708 16.078 58.4374 15.937 58.3707 15.8647C58.2985 16.1739 58.221 16.4686 58.1435 16.7488C58.1849 16.6874 58.2264 16.6349 58.2679 16.5843C58.2679 17.002 58.0208 17.6492 57.5213 18.5171C57.3608 18.8787 57.1913 19.1987 57.011 19.4681L56.9551 19.4482C56.7278 19.7936 56.4754 20.166 56.1923 20.5638C54.8109 22.5111 53.7704 23.4892 53.0635 23.4892C52.4089 23.4892 51.8625 22.8745 51.4351 21.6396C51.0023 20.4571 50.7859 19.1499 50.7859 17.7179V17.2063C49.3126 19.5676 48.1946 20.75 47.421 20.75C46.7772 20.75 46.4219 20.4607 46.3498 19.8822C46.1641 20.1823 45.9729 20.4824 45.7836 20.7808C45.3309 21.4986 44.7989 22.2164 44.1858 22.9305C43.7116 23.4946 43.2896 23.9485 42.9127 24.2902C44.3283 23.8508 45.9981 23.6284 47.9043 23.6284ZM66.3431 29.2189C66.0293 29.2189 65.7715 28.9766 65.7715 28.6819C65.7715 28.3872 66.0293 28.1449 66.3431 28.1449C66.6569 28.1449 66.9148 28.3872 66.9148 28.6819C66.9166 28.9766 66.6587 29.2189 66.3431 29.2189ZM64.2513 27.1216C63.6688 27.1216 63.1945 26.6768 63.1945 26.129C63.1945 25.5811 63.6688 25.1363 64.2513 25.1363C64.8337 25.1363 65.308 25.5811 65.308 26.129C65.308 26.6768 64.8337 27.1216 64.2513 27.1216ZM4.11083 15.0095C3.79706 15.0095 3.53918 14.7726 3.53918 14.4725C3.53918 14.1778 3.79706 13.9409 4.11083 13.9409C4.42461 13.9409 4.68248 14.1778 4.68248 14.4725C4.68248 14.7726 4.42461 15.0095 4.11083 15.0095ZM5.31725 18.8389C4.72937 18.8389 4.26051 18.3941 4.26051 17.8463C4.26051 17.2985 4.72937 16.8537 5.31725 16.8537C5.89972 16.8537 6.37399 17.2985 6.37399 17.8463C6.37399 18.3941 5.89972 18.8389 5.31725 18.8389Z" fill="url(#paint1_linear)"/>
<defs>
<linearGradient id="paint0_linear" x1="32.33" y1="37.4308" x2="35.0488" y2="19.7141" gradientUnits="userSpaceOnUse">
<stop stop-color="#D3D4D4"/>
<stop offset="1" stop-color="#D3D4D4"/>
</linearGradient>
<linearGradient id="paint1_linear" x1="35.2274" y1="41.5224" x2="35.2274" y2="2.78454" gradientUnits="userSpaceOnUse">
<stop stop-color="#5E5E7B"/>
<stop offset="1" stop-color="#5E5E7B"/>
</linearGradient>
</defs>
</svg>
