<svg width="39" height="39" viewBox="0 0 39 39" fill="none" xmlns="http://www.w3.org/2000/svg">
<path d="M0 19.5C0 30.2758 8.73505 39 19.5 39C30.2649 39 39 30.265 39 19.5C39 12.7301 35.5556 6.76993 30.3189 3.27159L29.4767 31.1827C29.4767 31.2043 29.4767 31.2259 29.4767 31.2475C29.4767 32.6296 24.1968 33.7525 17.6752 33.7525C11.1537 33.7525 5.87375 32.6296 5.87375 31.2475C5.87375 31.2259 5.87375 31.2043 5.87375 31.1827V31.1719C5.89535 30.9884 6.01412 30.8156 6.21927 30.6429L25.4277 0.917774C23.5598 0.32392 21.5731 0 19.5 0C8.73505 0 0 8.72425 0 19.5Z" fill="#6F6EFF"/>
</svg>
