<svg width="15" height="15" viewBox="0 0 15 15" fill="none" xmlns="http://www.w3.org/2000/svg">
<path d="M14.1813 4.59617C14.1782 3.98312 13.6769 3.48438 13.0639 3.48438H11.7984H11.7944H10.966C11.2422 3.80463 11.4107 4.22013 11.413 4.67409L11.4322 8.486C11.435 9.03672 11.0464 9.4898 10.5385 9.59766V12.5386C10.5385 12.8516 10.7922 13.1053 11.1051 13.1053C11.418 13.1053 11.6717 12.8516 11.6717 12.5386V8.00953H11.9164V12.5386C11.9164 12.8516 12.1701 13.1053 12.483 13.1053C12.796 13.1053 13.0497 12.8516 13.0497 12.5386C13.0497 5.0386 13.0396 9.34318 13.0394 4.58911C13.0394 4.53445 13.0837 4.49014 13.1383 4.49014C13.1929 4.49014 13.2373 4.53445 13.2373 4.58906C13.2373 4.59297 13.2372 4.59688 13.2371 4.60097L13.2545 8.06999C13.2558 8.32997 13.4669 8.53982 13.7266 8.53982C13.7274 8.53982 13.7282 8.53982 13.729 8.53982C13.9898 8.53855 14.2002 8.32607 14.1989 8.06528L14.1813 4.59617Z" fill="#6F6EFF"/>
<path d="M11.8004 3.17214C12.3394 3.17214 12.7791 2.7347 12.7791 2.19349C12.7791 1.65299 12.3409 1.21484 11.8004 1.21484C11.2599 1.21484 10.8218 1.65299 10.8218 2.19349C10.8218 2.7356 11.2621 3.17214 11.8004 3.17214Z" fill="#6F6EFF"/>
<path d="M10.8202 8.4892L10.801 4.67728C10.7976 4.00363 10.2468 3.4556 9.57314 3.4556C9.47177 3.4556 6.83075 3.45541 6.77368 3.45597C7.0856 3.79793 7.27718 4.25152 7.27967 4.74843L7.3003 8.85625C7.30232 9.2556 7.10307 9.60975 6.79807 9.8228V13.4047C6.79807 13.7486 7.07684 14.0273 7.42068 14.0273C7.76453 14.0273 8.0433 13.7486 8.0433 13.4047V8.42799H8.31214V13.4048C8.31214 13.7486 8.59086 14.0274 8.93475 14.0274C9.27864 14.0274 9.55737 13.7486 9.55737 13.4048C9.55737 5.16863 9.5463 9.88739 9.54607 4.67964C9.54607 4.61966 9.59466 4.57107 9.65464 4.57102C9.71462 4.57102 9.76326 4.61961 9.76326 4.67959C9.76326 4.68058 9.76326 4.68157 9.76326 4.68251L9.78242 8.49437C9.78388 8.78007 10.0159 9.01063 10.3012 9.01063C10.3021 9.01068 10.303 9.01068 10.3039 9.01068C10.5905 9.00922 10.8216 8.77574 10.8202 8.4892Z" fill="#6F6EFF"/>
<path d="M5.34442 3.43457C5.03321 3.43457 2.65452 3.43457 2.3426 3.43457C1.61665 3.43457 1.02308 4.02517 1.01941 4.75118L0.998786 8.859C0.99728 9.16046 1.23636 9.41127 1.54178 9.42012C1.54626 9.42026 1.55064 9.42088 1.55511 9.42092C1.55605 9.42092 1.55699 9.42092 1.55798 9.42092C1.86547 9.42092 2.11553 9.17242 2.11708 8.8646L2.1377 4.75678V4.75673C2.13799 4.69722 2.18643 4.6492 2.24595 4.64934C2.30546 4.64948 2.35362 4.69783 2.35362 4.7573L2.3539 14.1562C2.3539 14.5267 2.65429 14.8271 3.02487 14.8271C3.39706 14.8271 3.69584 14.5248 3.69584 14.1562V8.79304H3.98554V14.1562C3.98554 14.5251 4.28422 14.8272 4.6565 14.8272C5.02709 14.8272 5.32747 14.5268 5.32747 14.1562C5.32747 11.7567 5.31594 7.26946 5.31532 4.75744C5.31528 4.69293 5.36749 4.64058 5.43199 4.64039C5.4965 4.6402 5.54895 4.69228 5.54927 4.75682L5.56994 8.86465C5.5715 9.17247 5.82146 9.42097 6.12904 9.42097C6.12994 9.42097 6.13097 9.42097 6.13192 9.42097C6.44007 9.41942 6.68979 9.16847 6.68824 8.85904L6.66762 4.75122C6.66394 4.02955 6.07382 3.43457 5.34442 3.43457Z" fill="#6F6EFF"/>
<path d="M3.84816 3.06522C4.48843 3.06522 5.007 2.54501 5.007 1.90639C5.00704 1.26838 4.48952 0.747559 3.84816 0.747559C3.21434 0.747559 2.68933 1.2609 2.68933 1.90644C2.68933 2.54812 3.21086 3.06522 3.84816 3.06522Z" fill="#6F6EFF"/>
<path d="M8.18485 3.11287C8.77729 3.11287 9.26021 2.63193 9.26021 2.03751C9.26026 1.44357 8.77879 0.962158 8.18485 0.962158C7.59096 0.962158 7.1095 1.44362 7.1095 2.03751C7.1095 2.63122 7.59167 3.11287 8.18485 3.11287Z" fill="#6F6EFF"/>
</svg>
